<svg width="491" height="589" viewBox="0 0 491 589" fill="none" xmlns="http://www.w3.org/2000/svg">
<path d="M343.547 565.917C328.645 560.681 323.006 527.252 343.547 528.057C358.852 528.657 362.074 555.445 342.742 565.917M342.742 551.015L336.297 545.376V543.765L342.742 538.126H344.353L349.991 543.765V545.376L344.353 551.015H342.742ZM339.922 519.196H346.366C379.393 519.196 368.921 569.945 344.353 569.945H341.936C317.77 569.945 305.687 519.196 339.922 519.196Z" stroke="#DEDEDE" stroke-width="2.13271"/>
<path d="M289.172 519.196C276.687 519.196 277.089 526.446 275.478 530.877C278.7 529.668 283.534 528.863 286.353 528.863H292.394C297.63 528.863 300.45 531.682 300.45 534.904V538.529C300.45 544.571 287.11 553.955 273.867 561.89V569.542H312.13C313.476 565.992 313.603 563.954 313.338 560.278H283.534C298.436 555.848 312.13 545.779 312.13 539.335V532.488C312.13 527.252 308.505 519.196 297.228 519.196H289.172Z" stroke="#DEDEDE" stroke-width="2.13271"/>
<path d="M385.432 519.6C372.946 519.6 373.349 526.849 371.738 531.28C374.96 530.072 379.793 529.266 382.613 529.266H388.654C393.89 529.266 396.71 532.085 396.71 535.307V538.932C396.71 544.974 383.369 554.359 370.127 562.293V569.945H408.39C409.736 566.395 409.862 564.357 409.598 560.682H379.793C394.696 556.251 408.39 546.182 408.39 539.738V532.891C408.39 527.655 404.765 519.6 393.487 519.6H385.432Z" stroke="#DEDEDE" stroke-width="2.13271"/>
<path d="M428.93 519.6C416.444 519.6 416.847 526.849 415.236 531.28C418.458 530.072 423.291 529.266 426.111 529.266H432.152C437.388 529.266 440.208 532.085 440.208 535.307V538.932C440.208 544.974 426.867 554.359 413.625 562.293V569.945H451.888C453.234 566.395 453.36 564.357 453.096 560.682H423.291C438.194 556.251 451.888 546.182 451.888 539.738V532.891C451.888 527.655 448.263 519.6 436.985 519.6H428.93Z" stroke="#DEDEDE" stroke-width="2.13271"/>
<path d="M253.729 530.474H242.451V569.14H254.534V562.696C254.534 557.46 258.159 541.349 270.645 541.349V529.669C260.576 529.669 256.145 538.933 253.729 547.391V530.474Z" stroke="#DEDEDE" stroke-width="2.13271"/>
<path d="M132.497 524.434L132.9 524.232M132.9 524.232C136.409 521.396 138.765 520.01 144.58 518.392V530.072H159.886C159.508 534.058 159.125 536.205 157.872 539.739H144.58V554.238C145.174 558.219 146.622 559.427 150.622 560.28H194.926V549.808C194.926 538.53 201.37 530.475 212.245 530.475H233.592V569.543H222.314V551.822C216.838 563.638 213.296 568.469 204.995 569.543H145.386C138.539 569.543 133.303 565.516 132.9 555.849V539.739H125.65V530.475H132.9V524.232ZM222.314 538.53C218.094 551.753 214.259 559.877 211.037 559.877C207.815 559.877 206.781 557.423 206.606 550.613V544.572C206.606 539.739 209.829 538.53 213.856 538.53H222.314Z" stroke="#DEDEDE" stroke-width="2.13271"/>
<path d="M109.135 551.821V569.543H120.009V530.475H99.871C89.3991 530.475 81.3438 538.53 81.3438 552.224C81.3438 565.918 85.7742 570.348 91.4129 570.348C99.0655 570.348 102.285 564.464 109.135 551.821Z" stroke="#DEDEDE" stroke-width="2.13271"/>
<path d="M57.5804 516.378C82.9547 520.284 80.9408 554.238 57.5804 560.279L75.3021 569.946C81.6854 572.712 83.2882 576.498 82.9547 586.862L45.0946 567.126C30.595 559.071 24.5535 546.988 24.9563 539.336C25.4993 529.02 30.9978 519.6 45.0946 516.378C47.914 515.734 52.7045 515.627 57.5804 516.378Z" stroke="#DEDEDE" stroke-width="2.13271"/>
<path d="M424.902 460.795H413.625V492.211C413.625 506.711 450.68 509.53 450.68 492.211V460.795H439.402V488.989C439.402 497.044 424.902 496.239 424.902 488.989V460.795Z" stroke="#DEDEDE" stroke-width="2.13271"/>
<path d="M455.516 503.086V460.795H476.459C492.57 460.795 493.778 488.184 476.459 488.184H467.599V503.086H455.516Z" stroke="#DEDEDE" stroke-width="2.13271"/>
<path d="M409.599 461.601V470.865C404.035 468.829 397.919 467.34 394.696 468.448C381.808 472.879 381.808 491.406 394.696 494.225C399.932 495.37 401.596 495.135 409.599 494.225V503.086C403.154 505.1 388.483 504.055 386.238 503.086C368.517 495.433 368.919 468.448 386.238 461.601C394.696 459.184 400.218 459.669 409.599 461.601Z" stroke="#DEDEDE" stroke-width="2.13271"/>
<path d="M284.34 503.489V460.393H296.02V494.628H313.742V503.489H284.34Z" stroke="#DEDEDE" stroke-width="2.13271"/>
<path d="M319.379 503.489V460.795H340.726C366.1 460.795 365.697 503.489 340.726 503.489H319.379Z" stroke="#DEDEDE" stroke-width="2.13271"/>
<path d="M51.9432 461.198H39.0547V503.086H51.9432V461.198Z" stroke="#DEDEDE" stroke-width="2.13271"/>
<path d="M101.888 461.198L86.1797 503.891H99.471L101.888 498.656H115.582L118.401 503.891H131.29L115.582 461.198H101.888Z" stroke="#DEDEDE" stroke-width="2.13271"/>
<path d="M149.415 461.198H137.734L146.998 503.489H161.9L167.539 471.267L173.581 503.489H188.483L197.747 461.198H186.872L181.233 492.211L175.192 461.198H160.692L154.651 492.211L149.415 461.198Z" stroke="#DEDEDE" stroke-width="2.13271"/>
<path d="M239.001 202.5C266.476 128.733 288 70.0639 239.001 57.5002C226.196 54.2168 216.409 55.9163 209.5 61.319M239.001 202.5C196.82 147.041 184.842 80.5992 209.5 61.319M239.001 202.5L265.112 249.5M215.5 407C242.212 409.803 254.982 410.405 274 410C315 409.128 319 344.5 296.5 306L269.278 257M215.5 407C168.489 387.471 174.424 347.735 209.5 255M215.5 407C243.888 352.448 247.251 319.892 209.5 255M209.5 255L165.501 172.5C132 112 144 46.5 182.501 24.5002C194.001 9.49994 205.522 5.83071 230.501 4.50015C247.501 0.499934 247.501 0.499965 262.001 4.50015L295.501 14.5002C343.501 57.5002 349.501 110 305.501 189.5L269.278 257M269.278 257L265.112 249.5M209.5 61.319C223.62 35.6355 236.56 30.6875 269.278 40C284.696 30.5614 292.269 29.1164 302 40C343.575 86.5 330.924 128.5 265.112 249.5" stroke="#DEDEDE" stroke-width="2.13271"/>
<path d="M2 461.198V503.489H15.6941V488.184H24.5549L28.5826 478.92H15.6941V470.865H31.4019L34.6241 461.198H2Z" stroke="#DEDEDE" stroke-width="2.13271"/>
<path d="M61.6094 460.795V503.086H75.3034V487.781H84.1643L88.192 478.517H75.3034V470.462H91.0113L94.2334 460.795H61.6094Z" stroke="#DEDEDE" stroke-width="2.13271"/>
<path d="M219.086 460.394C190.261 460.394 188.836 504.295 219.086 504.295C246.072 504.295 248.488 460.393 219.086 460.394Z" stroke="#DEDEDE" stroke-width="2.13271"/>
<path d="M219.3 468.853C206.97 468.853 206.36 495.435 219.3 495.435C230.844 495.435 231.877 468.852 219.3 468.853Z" stroke="#DEDEDE" stroke-width="2.13271"/>
<path d="M244.062 460.795V503.489H255.743V486.975C262.59 485.364 267.02 495.836 268.228 503.489H280.311C277.709 493.791 275.566 488.978 269.84 482.142C279.506 482.142 281.52 464.823 269.84 460.795H244.062Z" stroke="#DEDEDE" stroke-width="2.13271"/>
</svg>
