<svg width="40" height="40" viewBox="0 0 40 40" fill="none" xmlns="http://www.w3.org/2000/svg">
<g filter="url(#filter0_i_71_1593)">
<ellipse cx="20" cy="18.944" rx="19" ry="18.848" fill="#D9D9D9"/>
</g>
<path d="M38.924 18.944C38.924 29.3109 30.452 37.716 20 37.716C9.54799 37.716 1.076 29.3109 1.076 18.944C1.076 8.57709 9.54799 0.172008 20 0.172008C30.452 0.172008 38.924 8.57709 38.924 18.944Z" stroke="black" stroke-width="0.152"/>
<g filter="url(#filter1_d_71_1593)">
<path d="M26.84 4.656C23.9805 4.79263 22.5433 5.10447 20.152 6.176C20.5634 8.87746 20.7698 10.3904 21.064 13.092C23.621 13.4642 25.3504 14.0196 28.74 15.372C30.1542 13.3284 30.8654 12.1346 32.084 9.976C30.2032 7.02 29.0594 5.82152 26.84 4.656Z" fill="black"/>
<path d="M3.584 9.52C4.724 9.064 6.776 9.368 7.308 9.976C8.95723 7.2644 10.2977 6.05216 13.54 4.504C13.5039 3.27206 13.4687 2.59078 13.388 1.388C8.56415 3.7025 6.37422 5.45495 3.584 9.52Z" fill="black"/>
<path d="M2.368 25.784C2.27278 24.9139 2.1963 23.9276 2.292 23.2C1.87932 22.7673 1.46894 22.0679 1.228 21.376C1.62082 23.1602 1.85304 24.135 2.368 25.784Z" fill="black"/>
<path d="M25.852 33.84C25.4622 31.8224 25.1967 30.6624 24.484 28.672C26.9056 26.9883 28.1959 25.8734 30.336 23.504C32.1806 24.0609 33.2031 24.5028 35.048 25.48C34.5928 28.0478 34.1562 29.4178 32.768 31.636C30.3111 33.2689 28.7633 33.6521 25.852 33.84Z" fill="black"/>
<path d="M12.096 34.372C10.9635 34.4381 10.3577 34.4313 9.284 34.372C12.7469 36.5445 15.1084 37.2181 19.848 37.716C19.6616 37.6223 19.6019 37.4076 19.544 36.804C16.2622 36.3449 14.6109 35.8419 12.096 34.372Z" fill="black"/>
<path d="M16.808 26.392C16.0511 23.396 15.6762 21.7051 15.212 18.64C12.4672 17.6932 10.9445 17.3179 8.296 16.968C6.66782 19.112 6.08098 20.4744 5.636 23.2C7.16704 26.3317 8.29284 27.574 10.652 29.128C13.0035 28.3465 14.3468 27.7638 16.808 26.392Z" fill="black"/>
<path d="M38.164 20.16L38.924 20.084C38.7631 15.982 38.3485 13.9971 37.1 10.964L36.34 11.952C37.7516 15.2276 38.0334 17.014 38.164 20.16Z" fill="black"/>
<path d="M20.152 6.176C17.6439 4.80591 16.1958 4.47847 13.54 4.504M20.152 6.176C22.5433 5.10447 23.9805 4.79263 26.84 4.656M20.152 6.176C20.5634 8.87746 20.7698 10.3904 21.064 13.092M26.84 4.656C27.0267 3.73532 27.0563 3.01428 27.068 1.616M26.84 4.656C29.0594 5.82152 30.2032 7.02 32.084 9.976M32.084 9.976C33.9016 10.5383 34.8205 10.98 36.34 11.952M32.084 9.976C30.8654 12.1346 30.1542 13.3284 28.74 15.372M28.74 15.372C29.7369 18.6592 30.0847 20.4351 30.336 23.504M28.74 15.372C25.3504 14.0196 23.621 13.4642 21.064 13.092M21.064 13.092L15.212 18.64M15.212 18.64C15.6762 21.7051 16.0511 23.396 16.808 26.392M15.212 18.64C12.4672 17.6932 10.9445 17.3179 8.296 16.968M16.808 26.392C19.5639 27.7407 21.2551 28.2158 24.484 28.672M16.808 26.392C14.3468 27.7638 13.0035 28.3465 10.652 29.128M10.652 29.128C10.7789 31.7511 11.1418 32.8389 12.096 34.372M10.652 29.128C8.29284 27.574 7.16704 26.3317 5.636 23.2M5.636 23.2C4.2629 23.2744 3.52305 23.2835 2.292 23.2M5.636 23.2C6.08098 20.4744 6.66782 19.112 8.296 16.968M8.296 16.968C7.53011 14.2036 7.30482 12.6701 7.308 9.976M7.308 9.976C6.776 9.368 4.724 9.064 3.584 9.52C6.37422 5.45495 8.56415 3.7025 13.388 1.388C13.4687 2.59078 13.5039 3.27206 13.54 4.504M7.308 9.976C8.95723 7.2644 10.2977 6.05216 13.54 4.504M2.292 23.2C2.1963 23.9276 2.27278 24.9139 2.368 25.784C1.85304 24.135 1.62082 23.1602 1.228 21.376C1.46894 22.0679 1.87932 22.7673 2.292 23.2ZM12.096 34.372C10.9635 34.4381 10.3577 34.4313 9.284 34.372C12.7469 36.5445 15.1084 37.2181 19.848 37.716C19.6616 37.6223 19.6019 37.4076 19.544 36.804M12.096 34.372C14.6109 35.8419 16.2622 36.3449 19.544 36.804M24.484 28.672C25.1967 30.6624 25.4622 31.8224 25.852 33.84M24.484 28.672C26.9056 26.9883 28.1959 25.8734 30.336 23.504M25.852 33.84C23.9615 35.7724 22.5481 36.3922 19.544 36.804M25.852 33.84C28.7633 33.6521 30.3111 33.2689 32.768 31.636M33.376 32.168L32.768 31.636M32.768 31.636C34.1562 29.4178 34.5928 28.0478 35.048 25.48M35.048 25.48C36.6613 23.7178 37.3621 22.5601 38.164 20.16M35.048 25.48C33.2031 24.5028 32.1806 24.0609 30.336 23.504M38.164 20.16L38.924 20.084C38.7631 15.982 38.3485 13.9971 37.1 10.964L36.34 11.952M38.164 20.16C38.0334 17.014 37.7516 15.2276 36.34 11.952" stroke="black" stroke-width="0.152" stroke-linejoin="round"/>
</g>
<defs>
<filter id="filter0_i_71_1593" x="1" y="0.0960083" width="38.152" height="38.304" filterUnits="userSpaceOnUse" color-interpolation-filters="sRGB">
<feFlood flood-opacity="0" result="BackgroundImageFix"/>
<feBlend mode="normal" in="SourceGraphic" in2="BackgroundImageFix" result="shape"/>
<feColorMatrix in="SourceAlpha" type="matrix" values="0 0 0 0 0 0 0 0 0 0 0 0 0 0 0 0 0 0 127 0" result="hardAlpha"/>
<feOffset dx="0.152" dy="0.608"/>
<feGaussianBlur stdDeviation="1.824"/>
<feComposite in2="hardAlpha" operator="arithmetic" k2="-1" k3="1"/>
<feColorMatrix type="matrix" values="0 0 0 0 0.0583333 0 0 0 0 0.0583333 0 0 0 0 0.0583333 0 0 0 0.56 0"/>
<feBlend mode="normal" in2="shape" result="effect1_innerShadow_71_1593"/>
</filter>
<filter id="filter1_d_71_1593" x="0.391978" y="1.16001" width="39.368" height="38" filterUnits="userSpaceOnUse" color-interpolation-filters="sRGB">
<feFlood flood-opacity="0" result="BackgroundImageFix"/>
<feColorMatrix in="SourceAlpha" type="matrix" values="0 0 0 0 0 0 0 0 0 0 0 0 0 0 0 0 0 0 127 0" result="hardAlpha"/>
<feOffset dy="0.608"/>
<feGaussianBlur stdDeviation="0.38"/>
<feComposite in2="hardAlpha" operator="out"/>
<feColorMatrix type="matrix" values="0 0 0 0 0.0588235 0 0 0 0 0.0588235 0 0 0 0 0.0588235 0 0 0 0.25 0"/>
<feBlend mode="normal" in2="BackgroundImageFix" result="effect1_dropShadow_71_1593"/>
<feBlend mode="normal" in="SourceGraphic" in2="effect1_dropShadow_71_1593" result="shape"/>
</filter>
</defs>
</svg>
