<svg width="81" height="80" viewBox="0 0 81 80" fill="none" xmlns="http://www.w3.org/2000/svg">
<g filter="url(#filter0_i_137_794)">
<ellipse cx="40.5738" cy="38.2652" rx="38.5738" ry="38.2652" fill="#D9D9D9"/>
</g>
<path d="M78.9933 38.2652C78.9933 59.3121 61.7935 76.3761 40.5738 76.3761C19.3541 76.3761 2.1543 59.3121 2.1543 38.2652C2.1543 17.2183 19.3541 0.154295 40.5738 0.154295C61.7935 0.154295 78.9933 17.2183 78.9933 38.2652Z" stroke="black" stroke-width="0.30859"/>
<g filter="url(#filter1_d_137_794)">
<path d="M54.4604 9.25774C48.6549 9.53513 45.7372 10.1682 40.8824 12.3436C41.7176 17.8281 42.1366 20.8997 42.7339 26.3845C47.9252 27.1401 51.4362 28.2677 58.3177 31.0134C61.1888 26.8645 62.6326 24.4408 65.1067 20.0584C61.2884 14.0571 58.9661 11.624 54.4604 9.25774Z" fill="black"/>
<path d="M7.24604 19.1326C9.56047 18.2069 13.7264 18.824 14.8065 20.0584C18.1548 14.5533 20.8761 12.0922 27.4587 8.94915C27.3855 6.44806 27.3139 5.06494 27.1501 2.62305C17.3567 7.32193 12.9108 10.8798 7.24604 19.1326Z" fill="black"/>
<path d="M4.77732 52.1518C4.58401 50.3853 4.42874 48.3828 4.62302 46.9058C3.78522 46.0272 2.95206 44.6074 2.46289 43.2027C3.26039 46.825 3.73185 48.8039 4.77732 52.1518Z" fill="black"/>
<path d="M52.4545 68.5071C51.6632 64.4109 51.1242 62.056 49.6772 58.015C54.5936 54.5967 57.2131 52.3333 61.5579 47.5229C65.3028 48.6536 67.3787 49.5508 71.1242 51.5346C70.2002 56.7478 69.3137 59.5292 66.4954 64.0325C61.5073 67.3477 58.3651 68.1255 52.4545 68.5071Z" fill="black"/>
<path d="M24.5271 69.5871C22.2278 69.7213 20.9981 69.7075 18.8182 69.5871C25.8486 73.9977 30.6429 75.3653 40.2652 76.3761C39.8868 76.1858 39.7655 75.75 39.648 74.5246C32.9854 73.5925 29.6328 72.5714 24.5271 69.5871Z" fill="black"/>
<path d="M34.0934 53.3862C32.5567 47.3037 31.7957 43.8708 30.8532 37.648C25.2807 35.7258 22.1893 34.9639 16.8123 34.2536C13.5068 38.6063 12.3154 41.3722 11.412 46.9058C14.5203 53.2638 16.8059 55.7859 21.5955 58.9408C26.3695 57.3541 29.0967 56.1711 34.0934 53.3862Z" fill="black"/>
<path d="M77.4503 40.7339L78.9933 40.5797C78.6667 32.2517 77.8249 28.2221 75.2902 22.0642L73.7472 24.0701C76.6132 30.7203 77.1853 34.347 77.4503 40.7339Z" fill="black"/>
<path d="M40.8824 12.3436C35.7905 9.56209 32.8504 8.89731 27.4587 8.94915M40.8824 12.3436C45.7372 10.1682 48.6549 9.53513 54.4604 9.25774M40.8824 12.3436C41.7176 17.8281 42.1366 20.8997 42.7339 26.3845M54.4604 9.25774C54.8394 7.38857 54.8994 5.92471 54.9232 3.08593M54.4604 9.25774C58.9661 11.624 61.2884 14.0571 65.1067 20.0584M65.1067 20.0584C68.7969 21.1999 70.6623 22.0966 73.7472 24.0701M65.1067 20.0584C62.6326 24.4408 61.1888 26.8645 58.3177 31.0134M58.3177 31.0134C60.3417 37.687 61.0478 41.2925 61.5579 47.5229M58.3177 31.0134C51.4362 28.2677 47.9252 27.1401 42.7339 26.3845M42.7339 26.3845L30.8532 37.648M30.8532 37.648C31.7957 43.8708 32.5567 47.3037 34.0934 53.3862M30.8532 37.648C25.2807 35.7258 22.1893 34.9639 16.8123 34.2536M34.0934 53.3862C39.6884 56.1243 43.1218 57.0888 49.6772 58.015M34.0934 53.3862C29.0967 56.1711 26.3695 57.3541 21.5955 58.9408M21.5955 58.9408C21.853 64.2662 22.59 66.4746 24.5271 69.5871M21.5955 58.9408C16.8059 55.7859 14.5203 53.2638 11.412 46.9058M11.412 46.9058C8.62434 47.0568 7.12232 47.0752 4.62302 46.9058M11.412 46.9058C12.3154 41.3722 13.5068 38.6063 16.8123 34.2536M16.8123 34.2536C15.2574 28.6413 14.8 25.5279 14.8065 20.0584M14.8065 20.0584C13.7264 18.824 9.56047 18.2069 7.24604 19.1326C12.9108 10.8798 17.3567 7.32193 27.1501 2.62305C27.3139 5.06494 27.3855 6.44806 27.4587 8.94915M14.8065 20.0584C18.1548 14.5533 20.8761 12.0922 27.4587 8.94915M4.62302 46.9058C4.42874 48.3828 4.58401 50.3853 4.77732 52.1518C3.73185 48.8039 3.26039 46.825 2.46289 43.2027C2.95206 44.6074 3.78522 46.0272 4.62302 46.9058ZM24.5271 69.5871C22.2278 69.7213 20.9981 69.7075 18.8182 69.5871C25.8486 73.9977 30.6429 75.3653 40.2652 76.3761C39.8868 76.1858 39.7655 75.75 39.648 74.5246M24.5271 69.5871C29.6328 72.5714 32.9854 73.5925 39.648 74.5246M49.6772 58.015C51.1242 62.056 51.6632 64.4109 52.4545 68.5071M49.6772 58.015C54.5936 54.5967 57.2131 52.3333 61.5579 47.5229M52.4545 68.5071C48.6164 72.4303 45.747 73.6886 39.648 74.5246M52.4545 68.5071C58.3651 68.1255 61.5073 67.3477 66.4954 64.0325M67.7297 65.1126L66.4954 64.0325M66.4954 64.0325C69.3137 59.5292 70.2002 56.7478 71.1242 51.5346M71.1242 51.5346C74.3995 47.9569 75.8222 45.6067 77.4503 40.7339M71.1242 51.5346C67.3787 49.5508 65.3028 48.6536 61.5579 47.5229M77.4503 40.7339L78.9933 40.5797C78.6667 32.2517 77.8249 28.2221 75.2902 22.0642L73.7472 24.0701M77.4503 40.7339C77.1853 34.347 76.6132 30.7203 73.7472 24.0701" stroke="black" stroke-width="0.30859" stroke-linejoin="round"/>
</g>
<defs>
<filter id="filter0_i_137_794" x="2" y="0" width="77.4562" height="77.7648" filterUnits="userSpaceOnUse" color-interpolation-filters="sRGB">
<feFlood flood-opacity="0" result="BackgroundImageFix"/>
<feBlend mode="normal" in="SourceGraphic" in2="BackgroundImageFix" result="shape"/>
<feColorMatrix in="SourceAlpha" type="matrix" values="0 0 0 0 0 0 0 0 0 0 0 0 0 0 0 0 0 0 127 0" result="hardAlpha"/>
<feOffset dx="0.30859" dy="1.23436"/>
<feGaussianBlur stdDeviation="3.70308"/>
<feComposite in2="hardAlpha" operator="arithmetic" k2="-1" k3="1"/>
<feColorMatrix type="matrix" values="0 0 0 0 0.0583333 0 0 0 0 0.0583333 0 0 0 0 0.0583333 0 0 0 0.56 0"/>
<feBlend mode="normal" in2="shape" result="effect1_innerShadow_137_794"/>
</filter>
<filter id="filter1_d_137_794" x="0.765612" y="2.16016" width="79.9249" height="77.1475" filterUnits="userSpaceOnUse" color-interpolation-filters="sRGB">
<feFlood flood-opacity="0" result="BackgroundImageFix"/>
<feColorMatrix in="SourceAlpha" type="matrix" values="0 0 0 0 0 0 0 0 0 0 0 0 0 0 0 0 0 0 127 0" result="hardAlpha"/>
<feOffset dy="1.23436"/>
<feGaussianBlur stdDeviation="0.771476"/>
<feComposite in2="hardAlpha" operator="out"/>
<feColorMatrix type="matrix" values="0 0 0 0 0.0588235 0 0 0 0 0.0588235 0 0 0 0 0.0588235 0 0 0 0.25 0"/>
<feBlend mode="normal" in2="BackgroundImageFix" result="effect1_dropShadow_137_794"/>
<feBlend mode="normal" in="SourceGraphic" in2="effect1_dropShadow_137_794" result="shape"/>
</filter>
</defs>
</svg>
