<svg width="56" height="55" viewBox="0 0 56 55" fill="none" xmlns="http://www.w3.org/2000/svg">
<g filter="url(#filter0_i_71_1591)">
<ellipse cx="27.5" cy="26.288" rx="26.5" ry="26.288" fill="#D9D9D9"/>
</g>
<path d="M53.894 26.288C53.894 40.7471 42.0778 52.47 27.5 52.47C12.9222 52.47 1.106 40.7471 1.106 26.288C1.106 11.8289 12.9222 0.106 27.5 0.106C42.0778 0.106 53.894 11.8289 53.894 26.288Z" stroke="black" stroke-width="0.212"/>
<g filter="url(#filter1_d_71_1591)">
<path d="M37.04 6.36C33.0517 6.55057 31.0472 6.9855 27.712 8.48C28.2858 12.2478 28.5736 14.358 28.984 18.126C32.5504 18.6451 34.9624 19.4197 39.69 21.306C41.6624 18.4558 42.6543 16.7907 44.354 13.78C41.7308 9.65716 40.1354 7.98559 37.04 6.36Z" fill="black"/>
<path d="M4.60399 13.144C6.19399 12.508 9.05599 12.932 9.79799 13.78C12.0982 9.99803 13.9678 8.30728 18.49 6.148C18.4397 4.42977 18.3905 3.47957 18.278 1.802C11.55 5.03011 8.49562 7.47432 4.60399 13.144Z" fill="black"/>
<path d="M2.90799 35.828C2.77519 34.6144 2.66852 33.2388 2.80199 32.224C2.22642 31.6205 1.65405 30.6451 1.31799 29.68C1.86587 32.1686 2.18976 33.528 2.90799 35.828Z" fill="black"/>
<path d="M35.662 47.064C35.1183 44.2499 34.748 42.6321 33.754 39.856C37.1315 37.5076 38.9311 35.9527 41.916 32.648C44.4887 33.4248 45.9148 34.0411 48.488 35.404C47.8532 38.9854 47.2442 40.8963 45.308 43.99C41.8812 46.2675 39.7225 46.8019 35.662 47.064Z" fill="black"/>
<path d="M16.476 47.806C14.8964 47.8982 14.0516 47.8887 12.554 47.806C17.3839 50.836 20.6775 51.7756 27.288 52.47C27.028 52.3393 26.9447 52.0398 26.864 51.198C22.2868 50.5576 19.9836 49.8561 16.476 47.806Z" fill="black"/>
<path d="M23.048 36.676C21.9923 32.4974 21.4695 30.139 20.822 25.864C16.9937 24.5434 14.87 24.02 11.176 23.532C8.90511 26.5223 8.08662 28.4225 7.46599 32.224C9.6014 36.5919 11.1716 38.3246 14.462 40.492C17.7417 39.402 19.6153 38.5893 23.048 36.676Z" fill="black"/>
<path d="M52.834 27.984L53.894 27.878C53.6696 22.1567 53.0913 19.3884 51.35 15.158L50.29 16.536C52.2589 21.1047 52.6519 23.5962 52.834 27.984Z" fill="black"/>
<path d="M27.712 8.48C24.2139 6.56909 22.1941 6.11239 18.49 6.148M27.712 8.48C31.0472 6.9855 33.0517 6.55057 37.04 6.36M27.712 8.48C28.2858 12.2478 28.5736 14.358 28.984 18.126M37.04 6.36C37.3004 5.07589 37.3416 4.07023 37.358 2.12M37.04 6.36C40.1354 7.98559 41.7308 9.65716 44.354 13.78M44.354 13.78C46.8891 14.5642 48.1707 15.1802 50.29 16.536M44.354 13.78C42.6543 16.7907 41.6624 18.4558 39.69 21.306M39.69 21.306C41.0805 25.8908 41.5655 28.3677 41.916 32.648M39.69 21.306C34.9624 19.4197 32.5504 18.6451 28.984 18.126M28.984 18.126L20.822 25.864M20.822 25.864C21.4695 30.139 21.9923 32.4974 23.048 36.676M20.822 25.864C16.9937 24.5434 14.87 24.02 11.176 23.532M23.048 36.676C26.8917 38.5571 29.2505 39.2197 33.754 39.856M23.048 36.676C19.6153 38.5893 17.7417 39.402 14.462 40.492M14.462 40.492C14.6389 44.1505 15.1452 45.6677 16.476 47.806M14.462 40.492C11.1716 38.3246 9.6014 36.5919 7.46599 32.224M7.46599 32.224C5.55088 32.3278 4.519 32.3404 2.80199 32.224M7.46599 32.224C8.08662 28.4225 8.90511 26.5223 11.176 23.532M11.176 23.532C10.1078 19.6764 9.79356 17.5375 9.79799 13.78M9.79799 13.78C9.05599 12.932 6.19399 12.508 4.60399 13.144C8.49562 7.47432 11.55 5.03011 18.278 1.802C18.3905 3.47957 18.4397 4.42977 18.49 6.148M9.79799 13.78C12.0982 9.99803 13.9678 8.30728 18.49 6.148M2.80199 32.224C2.66852 33.2388 2.77519 34.6144 2.90799 35.828C2.18976 33.528 1.86587 32.1686 1.31799 29.68C1.65405 30.6451 2.22642 31.6205 2.80199 32.224ZM16.476 47.806C14.8964 47.8982 14.0516 47.8887 12.554 47.806C17.3839 50.836 20.6775 51.7756 27.288 52.47C27.028 52.3393 26.9447 52.0398 26.864 51.198M16.476 47.806C19.9836 49.8561 22.2868 50.5576 26.864 51.198M33.754 39.856C34.748 42.6321 35.1183 44.2499 35.662 47.064M33.754 39.856C37.1315 37.5076 38.9311 35.9527 41.916 32.648M35.662 47.064C33.0253 49.7593 31.0539 50.6237 26.864 51.198M35.662 47.064C39.7225 46.8019 41.8812 46.2675 45.308 43.99M46.156 44.732L45.308 43.99M45.308 43.99C47.2442 40.8963 47.8532 38.9854 48.488 35.404M48.488 35.404C50.7381 32.9462 51.7155 31.3316 52.834 27.984M48.488 35.404C45.9148 34.0411 44.4887 33.4248 41.916 32.648M52.834 27.984L53.894 27.878C53.6696 22.1567 53.0913 19.3884 51.35 15.158L50.29 16.536M52.834 27.984C52.6519 23.5962 52.2589 21.1047 50.29 16.536" stroke="black" stroke-width="0.212" stroke-linejoin="round"/>
</g>
<defs>
<filter id="filter0_i_71_1591" x="1" y="0" width="53.212" height="53.424" filterUnits="userSpaceOnUse" color-interpolation-filters="sRGB">
<feFlood flood-opacity="0" result="BackgroundImageFix"/>
<feBlend mode="normal" in="SourceGraphic" in2="BackgroundImageFix" result="shape"/>
<feColorMatrix in="SourceAlpha" type="matrix" values="0 0 0 0 0 0 0 0 0 0 0 0 0 0 0 0 0 0 127 0" result="hardAlpha"/>
<feOffset dx="0.212" dy="0.848"/>
<feGaussianBlur stdDeviation="2.544"/>
<feComposite in2="hardAlpha" operator="arithmetic" k2="-1" k3="1"/>
<feColorMatrix type="matrix" values="0 0 0 0 0.0583333 0 0 0 0 0.0583333 0 0 0 0 0.0583333 0 0 0 0.56 0"/>
<feBlend mode="normal" in2="shape" result="effect1_innerShadow_71_1591"/>
</filter>
<filter id="filter1_d_71_1591" x="0.151975" y="1.48404" width="54.908" height="52.9999" filterUnits="userSpaceOnUse" color-interpolation-filters="sRGB">
<feFlood flood-opacity="0" result="BackgroundImageFix"/>
<feColorMatrix in="SourceAlpha" type="matrix" values="0 0 0 0 0 0 0 0 0 0 0 0 0 0 0 0 0 0 127 0" result="hardAlpha"/>
<feOffset dy="0.848"/>
<feGaussianBlur stdDeviation="0.53"/>
<feComposite in2="hardAlpha" operator="out"/>
<feColorMatrix type="matrix" values="0 0 0 0 0.0588235 0 0 0 0 0.0588235 0 0 0 0 0.0588235 0 0 0 0.25 0"/>
<feBlend mode="normal" in2="BackgroundImageFix" result="effect1_dropShadow_71_1591"/>
<feBlend mode="normal" in="SourceGraphic" in2="effect1_dropShadow_71_1591" result="shape"/>
</filter>
</defs>
</svg>
