<svg width="643" height="641" viewBox="0 0 643 641" fill="none" xmlns="http://www.w3.org/2000/svg">
<g opacity="0.64" filter="url(#filter0_f_71_1755)">
<path d="M11.7971 403.657L10.3863 402.24L8.96867 403.651L10.3794 405.068L11.7971 403.657ZM236.814 629.773L235.397 631.184L236.807 632.602L238.225 631.191L236.814 629.773ZM631.276 237.228L632.687 238.645L634.105 237.235L632.694 235.817L631.276 237.228ZM406.259 11.1119L407.677 9.70118L406.266 8.28352L404.848 9.69429L406.259 11.1119ZM410.565 130.27L409.154 128.853L407.699 130.301L409.185 131.718L410.565 130.27ZM513.551 233.759L512.098 235.133L513.508 236.624L514.962 235.177L513.551 233.759ZM527.461 183.942L526.043 185.352L527.454 186.77L528.872 185.359L527.461 183.942ZM459.392 115.54L457.981 114.122L456.563 115.533L457.974 116.951L459.392 115.54ZM505.405 94.4387L506.823 93.0279L505.412 91.6103L503.994 93.021L505.405 94.4387ZM548.786 138.032L550.197 139.449L551.614 138.038L550.204 136.621L548.786 138.032ZM438.079 156.5L439.496 155.09L439.478 155.071L439.459 155.053L438.079 156.5ZM486.397 205.055L487.85 203.68L487.833 203.662L487.815 203.644L486.397 205.055ZM130.226 408.542L131.644 407.131L130.233 405.714L128.815 407.124L130.226 408.542ZM233.565 512.385L234.975 513.803L236.393 512.392L234.982 510.974L233.565 512.385ZM182.619 526.403L184.029 527.821L185.447 526.41L184.036 524.992L182.619 526.403ZM114.902 458.356L116.319 456.945L114.909 455.527L113.491 456.938L114.902 458.356ZM95.3471 503.21L93.9363 501.792L92.5186 503.203L93.9294 504.62L95.3471 503.21ZM138.728 546.803L137.31 548.213L138.721 549.631L140.139 548.22L138.728 546.803ZM10.3794 405.068L21.6656 416.409L24.5009 413.588L13.2147 402.247L10.3794 405.068ZM21.0187 391.659L10.3863 402.24L13.2079 405.075L23.8403 394.494L21.0187 391.659ZM24.8081 416.011C27.6859 411.107 29.1141 407.317 28.875 403.487C28.639 399.708 26.7894 396.244 24.1216 392.01L20.7374 394.143C23.4164 398.395 24.717 401.081 24.8828 403.737C25.0454 406.341 24.1271 409.269 21.3583 413.986L24.8081 416.011ZM238.225 631.191L248.857 620.61L246.036 617.775L235.403 628.355L238.225 631.191ZM225.874 621.615L235.397 631.184L238.232 628.362L228.709 618.793L225.874 621.615ZM248.519 617.505C244.316 614.832 240.703 613.228 236.99 613.38C233.246 613.534 229.846 615.45 226.006 618.672L228.577 621.736C232.206 618.691 234.753 617.475 237.154 617.377C239.586 617.277 242.317 618.302 246.374 620.88L248.519 617.505ZM622.055 249.226L632.687 238.645L629.865 235.81L619.233 246.391L622.055 249.226ZM632.694 235.817L622.466 225.539L619.631 228.36L629.859 238.638L632.694 235.817ZM622.318 246.714C619.894 243.005 618.871 240.366 618.898 237.785C618.927 235.178 620.03 232.264 622.734 228.025L619.362 225.874C616.536 230.304 614.939 233.997 614.899 237.742C614.858 241.512 616.398 244.967 618.97 248.903L622.318 246.714ZM418.963 21.0424L407.677 9.70118L404.841 12.5227L416.128 23.8639L418.963 21.0424ZM404.848 9.69429L394.216 20.275L397.037 23.1103L407.67 12.5296L404.848 9.69429ZM416.459 20.7739C412.148 23.5626 409.184 24.7325 406.472 24.6708C403.788 24.6097 400.928 23.3288 396.866 20.1227L394.388 23.2626C398.671 26.6429 402.385 28.5788 406.381 28.6698C410.35 28.76 414.173 27.017 418.632 24.1324L416.459 20.7739ZM469.398 71.7235L418.963 21.0424L416.128 23.8639L466.562 74.545L469.398 71.7235ZM466.569 71.7166L409.154 128.853L411.976 131.688L469.391 74.5519L466.569 71.7166ZM622.466 225.539L572.384 175.212L569.548 178.034L619.631 228.36L622.466 225.539ZM514.962 235.177L572.377 178.041L569.555 175.205L512.14 232.341L514.962 235.177ZM572.384 175.212L554.396 157.137L551.561 159.959L569.548 178.034L572.384 175.212ZM551.568 157.13L526.05 182.524L528.872 185.359L554.389 159.966L551.568 157.13ZM528.879 182.531L460.809 114.129L457.974 116.951L526.043 185.352L528.879 182.531ZM486.327 88.7353L469.398 71.7235L466.562 74.545L483.492 91.5569L486.327 88.7353ZM460.802 116.958L486.32 91.5638L483.499 88.7285L457.981 114.122L460.802 116.958ZM498.671 101.14L486.327 88.7353L483.492 91.5569L495.836 103.961L498.671 101.14ZM498.664 103.968L506.816 95.8563L503.994 93.021L495.843 101.133L498.664 103.968ZM503.987 95.8494L547.368 139.442L550.204 136.621L506.823 93.0279L503.987 95.8494ZM554.396 157.137L542.052 144.733L539.217 147.554L551.561 159.959L554.396 157.137ZM542.052 144.733L498.671 101.14L495.836 103.961L539.217 147.554L542.052 144.733ZM547.375 136.614L539.224 144.726L542.045 147.561L550.197 139.449L547.375 136.614ZM409.185 131.718L436.698 157.948L439.459 155.053L411.945 128.823L409.185 131.718ZM436.226 155.745C429.753 171.626 436.993 187.692 448.254 197.999C453.91 203.177 460.695 207.028 467.541 208.777C474.388 210.525 481.426 210.194 487.388 206.792L485.406 203.318C480.571 206.077 474.657 206.465 468.531 204.901C462.403 203.336 456.19 199.842 450.955 195.049C440.432 185.416 434.311 171.043 439.931 157.255L436.226 155.745ZM484.944 206.429L512.098 235.133L515.004 232.385L487.85 203.68L484.944 206.429ZM436.661 157.911L484.98 206.466L487.815 203.644L439.496 155.09L436.661 157.911ZM21.6656 416.409L71.7477 466.736L74.583 463.915L24.5009 413.588L21.6656 416.409ZM74.5762 466.743L131.637 409.96L128.815 407.124L71.7546 463.908L74.5762 466.743ZM175.086 570.579L225.874 621.615L228.709 618.793L177.922 567.758L175.086 570.579ZM232.154 510.967L175.093 567.751L177.915 570.586L234.975 513.803L232.154 510.967ZM156.746 552.15L175.086 570.579L177.922 567.758L159.582 549.328L156.746 552.15ZM159.575 552.157L184.029 527.821L181.208 524.986L156.753 549.321L159.575 552.157ZM184.036 524.992L116.319 456.945L113.484 459.767L181.201 527.814L184.036 524.992ZM71.7477 466.736L89.0296 484.102L91.8649 481.281L74.583 463.915L71.7477 466.736ZM113.491 456.938L89.0365 481.274L91.858 484.109L116.313 459.774L113.491 456.938ZM89.0296 484.102L101.727 496.861L104.562 494.04L91.8649 481.281L89.0296 484.102ZM101.733 494.033L93.9363 501.792L96.7578 504.627L104.555 496.868L101.733 494.033ZM93.9294 504.62L137.31 548.213L140.146 545.392L96.7647 501.799L93.9294 504.62ZM101.727 496.861L145.108 540.454L147.943 537.633L104.562 494.04L101.727 496.861ZM145.108 540.454L156.746 552.15L159.582 549.328L147.943 537.633L145.108 540.454ZM140.139 548.22L147.936 540.461L145.114 537.626L137.317 545.385L140.139 548.22ZM128.808 409.953L156.318 437.597L159.154 434.776L131.644 407.131L128.808 409.953ZM158.698 437.939C169.382 432.073 183.696 437.284 194.086 447.639C204.471 457.988 209.688 472.229 203.606 483.052L207.093 485.012C214.504 471.826 207.774 455.632 196.909 444.805C186.049 433.983 169.809 427.276 156.773 434.433L158.698 437.939ZM203.932 485.443L232.147 513.796L234.982 510.974L206.767 482.621L203.932 485.443ZM206.767 482.621L159.154 434.776L156.318 437.597L203.932 485.443L206.767 482.621ZM169.698 475.07C171.027 473.678 171.773 472.927 173.164 471.62L170.426 468.704C168.971 470.07 168.173 470.875 166.805 472.307L169.698 475.07ZM473.34 172.902C474.267 172.046 474.896 171.425 476.265 169.992L473.372 167.229C472.041 168.623 471.474 169.181 470.627 169.963L473.34 172.902ZM394.216 20.275L207.617 205.967L210.439 208.802L397.037 23.1103L394.216 20.275ZM207.617 205.967L21.0187 391.659L23.8403 394.494L210.439 208.802L207.617 205.967ZM248.857 620.61L435.456 434.918L432.634 432.083L246.036 617.775L248.857 620.61ZM435.456 434.918L622.055 249.226L619.233 246.391L432.634 432.083L435.456 434.918ZM320.302 325.198C322.398 323.071 323.6 321.863 325.942 319.586L323.153 316.718C320.785 319.02 319.561 320.25 317.452 322.391L320.302 325.198ZM207.61 208.795L278.149 279.678L280.984 276.857L210.446 205.974L207.61 208.795ZM280.921 279.739C308.486 254.359 341.78 260.043 361.79 279.464C371.806 289.186 378.443 302.317 379.351 316.676C380.256 331.004 375.467 346.712 362.356 361.653L365.363 364.291C379.109 348.626 384.32 331.898 383.343 316.424C382.367 300.981 375.237 286.942 364.576 276.594C343.228 255.874 307.52 249.811 278.212 276.796L280.921 279.739ZM362.442 364.383L432.628 434.911L435.463 432.09L365.277 361.561L362.442 364.383ZM278.086 276.922C250.466 307.311 256.394 343.308 277.223 364.605C287.617 375.233 301.741 382.226 317.248 383.026C332.784 383.826 349.554 378.402 365.19 364.465L362.529 361.479C347.605 374.78 331.845 379.773 317.454 379.031C303.034 378.288 289.834 371.779 280.082 361.808C260.618 341.906 254.96 308.314 281.046 279.613L278.086 276.922ZM278.149 279.678L362.442 364.383L365.277 361.561L280.984 276.857L278.149 279.678Z" fill="#FCF6F8"/>
</g>
<defs>
<filter id="filter0_f_71_1755" x="-4" y="-5" width="651.428" height="650.532" filterUnits="userSpaceOnUse" color-interpolation-filters="sRGB">
<feFlood flood-opacity="0" result="BackgroundImageFix"/>
<feBlend mode="normal" in="SourceGraphic" in2="BackgroundImageFix" result="shape"/>
<feGaussianBlur stdDeviation="4" result="effect1_foregroundBlur_71_1755"/>
</filter>
</defs>
</svg>
