<svg width="659" height="657" viewBox="0 0 659 657" fill="none" xmlns="http://www.w3.org/2000/svg">
<g opacity="0.64" filter="url(#filter0_f_71_1583)">
<path d="M19.7971 411.657L18.3863 410.24L16.9687 411.65L18.3794 413.068L19.7971 411.657ZM244.814 637.773L243.397 639.184L244.807 640.601L246.225 639.191L244.814 637.773ZM639.276 245.228L640.687 246.645L642.105 245.234L640.694 243.817L639.276 245.228ZM414.259 19.1119L415.677 17.7011L414.266 16.2835L412.848 17.6942L414.259 19.1119ZM418.565 138.27L417.154 136.853L415.699 138.301L417.185 139.718L418.565 138.27ZM521.551 241.759L520.098 243.133L521.508 244.623L522.962 243.177L521.551 241.759ZM535.461 191.942L534.043 193.352L535.454 194.77L536.872 193.359L535.461 191.942ZM467.392 123.54L465.981 122.122L464.563 123.533L465.974 124.951L467.392 123.54ZM513.405 102.439L514.823 101.028L513.412 99.6102L511.994 101.021L513.405 102.439ZM556.786 146.031L558.197 147.449L559.614 146.038L558.204 144.621L556.786 146.031ZM446.079 164.5L447.496 163.089L447.478 163.071L447.459 163.053L446.079 164.5ZM494.397 213.055L495.85 211.68L495.833 211.662L495.815 211.644L494.397 213.055ZM138.226 416.542L139.644 415.131L138.233 413.714L136.815 415.124L138.226 416.542ZM241.565 520.385L242.975 521.803L244.393 520.392L242.982 518.974L241.565 520.385ZM190.619 534.403L192.029 535.821L193.447 534.41L192.036 532.992L190.619 534.403ZM122.902 466.356L124.319 464.945L122.909 463.527L121.491 464.938L122.902 466.356ZM103.347 511.21L101.936 509.792L100.519 511.203L101.929 512.62L103.347 511.21ZM146.728 554.802L145.31 556.213L146.721 557.631L148.139 556.22L146.728 554.802ZM18.3794 413.068L29.6656 424.409L32.5009 421.588L21.2147 410.247L18.3794 413.068ZM29.0187 399.659L18.3863 410.24L21.2079 413.075L31.8403 402.494L29.0187 399.659ZM32.8081 424.011C35.6859 419.107 37.1141 415.317 36.875 411.487C36.639 407.708 34.7894 404.244 32.1216 400.01L28.7374 402.143C31.4164 406.395 32.717 409.081 32.8828 411.736C33.0454 414.341 32.1271 417.269 29.3583 421.986L32.8081 424.011ZM246.225 639.191L256.857 628.61L254.036 625.775L243.403 636.355L246.225 639.191ZM233.874 629.615L243.397 639.184L246.232 636.362L236.709 626.793L233.874 629.615ZM256.519 625.504C252.316 622.832 248.703 621.228 244.99 621.38C241.246 621.534 237.846 623.449 234.006 626.672L236.577 629.736C240.206 626.691 242.753 625.475 245.154 625.377C247.586 625.277 250.317 626.302 254.374 628.88L256.519 625.504ZM630.055 257.226L640.687 246.645L637.865 243.81L627.233 254.391L630.055 257.226ZM640.694 243.817L630.466 233.539L627.631 236.36L637.859 246.638L640.694 243.817ZM630.318 254.714C627.894 251.005 626.871 248.366 626.898 245.785C626.927 243.178 628.03 240.264 630.734 236.025L627.362 233.874C624.536 238.304 622.939 241.997 622.899 245.741C622.858 249.512 624.398 252.967 626.97 256.903L630.318 254.714ZM426.963 29.0423L415.677 17.7011L412.841 20.5226L424.128 31.8639L426.963 29.0423ZM412.848 17.6942L402.216 28.275L405.037 31.1103L415.67 20.5295L412.848 17.6942ZM424.459 28.7739C420.148 31.5626 417.184 32.7324 414.472 32.6707C411.788 32.6097 408.928 31.3288 404.866 28.1227L402.388 31.2626C406.671 34.6428 410.385 36.5788 414.381 36.6697C418.35 36.76 422.173 35.0169 426.632 32.1324L424.459 28.7739ZM477.398 79.7234L426.963 29.0423L424.128 31.8639L474.562 82.545L477.398 79.7234ZM474.569 79.7166L417.154 136.853L419.976 139.688L477.391 82.5519L474.569 79.7166ZM630.466 233.539L580.384 183.212L577.548 186.034L627.631 236.36L630.466 233.539ZM522.962 243.177L580.377 186.041L577.555 183.205L520.14 240.341L522.962 243.177ZM580.384 183.212L562.396 165.137L559.561 167.959L577.548 186.034L580.384 183.212ZM559.568 165.13L534.05 190.524L536.872 193.359L562.389 167.965L559.568 165.13ZM536.879 190.531L468.809 122.129L465.974 124.951L534.043 193.352L536.879 190.531ZM494.327 96.7353L477.398 79.7234L474.562 82.545L491.492 99.5568L494.327 96.7353ZM468.802 124.957L494.32 99.5637L491.499 96.7284L465.981 122.122L468.802 124.957ZM506.671 109.14L494.327 96.7353L491.492 99.5568L503.836 111.961L506.671 109.14ZM506.664 111.968L514.816 103.856L511.994 101.021L503.843 109.133L506.664 111.968ZM511.987 103.849L555.368 147.442L558.204 144.621L514.823 101.028L511.987 103.849ZM562.396 165.137L550.052 152.733L547.217 155.554L559.561 167.959L562.396 165.137ZM550.052 152.733L506.671 109.14L503.836 111.961L547.217 155.554L550.052 152.733ZM555.375 144.614L547.224 152.726L550.045 155.561L558.197 147.449L555.375 144.614ZM417.185 139.718L444.698 165.948L447.459 163.053L419.945 136.823L417.185 139.718ZM444.226 163.745C437.753 179.626 444.993 195.692 456.254 205.999C461.91 211.177 468.695 215.028 475.541 216.777C482.388 218.525 489.426 218.194 495.388 214.792L493.406 211.318C488.571 214.077 482.657 214.465 476.531 212.901C470.403 211.336 464.19 207.842 458.955 203.049C448.432 193.416 442.311 179.043 447.931 165.255L444.226 163.745ZM492.944 214.429L520.098 243.133L523.004 240.384L495.85 211.68L492.944 214.429ZM444.661 165.911L492.98 214.466L495.815 211.644L447.496 163.089L444.661 165.911ZM29.6656 424.409L79.7477 474.736L82.583 471.915L32.5009 421.588L29.6656 424.409ZM82.5762 474.743L139.637 417.96L136.815 415.124L79.7546 471.908L82.5762 474.743ZM183.086 578.579L233.874 629.615L236.709 626.793L185.922 575.758L183.086 578.579ZM240.154 518.967L183.093 575.751L185.915 578.586L242.975 521.803L240.154 518.967ZM164.746 560.15L183.086 578.579L185.922 575.758L167.582 557.328L164.746 560.15ZM167.575 560.157L192.029 535.821L189.208 532.986L164.753 557.321L167.575 560.157ZM192.036 532.992L124.319 464.945L121.484 467.767L189.201 535.814L192.036 532.992ZM79.7477 474.736L97.0296 492.102L99.8649 489.281L82.583 471.915L79.7477 474.736ZM121.491 464.938L97.0365 489.274L99.858 492.109L124.313 467.773L121.491 464.938ZM97.0296 492.102L109.727 504.861L112.562 502.04L99.8649 489.281L97.0296 492.102ZM109.733 502.033L101.936 509.792L104.758 512.627L112.555 504.868L109.733 502.033ZM101.929 512.62L145.31 556.213L148.146 553.392L104.765 509.799L101.929 512.62ZM109.727 504.861L153.108 548.454L155.943 545.632L112.562 502.04L109.727 504.861ZM153.108 548.454L164.746 560.15L167.582 557.328L155.943 545.632L153.108 548.454ZM148.139 556.22L155.936 548.461L153.114 545.626L145.317 553.385L148.139 556.22ZM136.808 417.953L164.318 445.597L167.154 442.775L139.644 415.131L136.808 417.953ZM166.698 445.939C177.382 440.073 191.696 445.284 202.086 455.639C212.471 465.988 217.688 480.229 211.606 491.052L215.093 493.012C222.504 479.826 215.774 463.632 204.909 452.805C194.049 441.983 177.809 435.276 164.773 442.433L166.698 445.939ZM211.932 493.443L240.147 521.796L242.982 518.974L214.767 490.621L211.932 493.443ZM214.767 490.621L167.154 442.775L164.318 445.597L211.932 493.443L214.767 490.621ZM177.698 483.07C179.027 481.678 179.773 480.927 181.164 479.62L178.426 476.704C176.971 478.07 176.173 478.875 174.805 480.307L177.698 483.07ZM481.34 180.902C482.267 180.046 482.896 179.425 484.265 177.992L481.372 175.229C480.041 176.623 479.474 177.181 478.627 177.963L481.34 180.902ZM402.216 28.275L215.617 213.967L218.439 216.802L405.037 31.1103L402.216 28.275ZM215.617 213.967L29.0187 399.659L31.8403 402.494L218.439 216.802L215.617 213.967ZM256.857 628.61L443.456 442.918L440.634 440.083L254.036 625.775L256.857 628.61ZM443.456 442.918L630.055 257.226L627.233 254.391L440.634 440.083L443.456 442.918ZM328.302 333.198C330.398 331.071 331.6 329.862 333.942 327.586L331.153 324.718C328.785 327.02 327.561 328.25 325.452 330.391L328.302 333.198ZM215.61 216.795L286.149 287.678L288.984 284.857L218.446 213.974L215.61 216.795ZM288.921 287.739C316.486 262.359 349.78 268.043 369.79 287.464C379.806 297.186 386.443 310.317 387.351 324.676C388.256 339.004 383.467 354.712 370.356 369.653L373.363 372.291C387.109 356.626 392.32 339.898 391.343 324.424C390.367 308.981 383.237 294.942 372.576 284.594C351.228 263.874 315.52 257.811 286.212 284.796L288.921 287.739ZM370.442 372.383L440.628 442.911L443.463 440.09L373.277 369.561L370.442 372.383ZM286.086 284.922C258.466 315.311 264.394 351.308 285.223 372.605C295.617 383.233 309.741 390.226 325.248 391.026C340.784 391.826 357.554 386.402 373.19 372.465L370.529 369.479C355.605 382.78 339.845 387.772 325.454 387.031C311.034 386.288 297.834 379.779 288.082 369.808C268.618 349.906 262.96 316.314 289.046 287.612L286.086 284.922ZM286.149 287.678L370.442 372.383L373.277 369.561L288.984 284.857L286.149 287.678Z" fill="#FCF6F8"/>
</g>
<defs>
<filter id="filter0_f_71_1583" x="-4" y="-5" width="667.428" height="666.532" filterUnits="userSpaceOnUse" color-interpolation-filters="sRGB">
<feFlood flood-opacity="0" result="BackgroundImageFix"/>
<feBlend mode="normal" in="SourceGraphic" in2="BackgroundImageFix" result="shape"/>
<feGaussianBlur stdDeviation="8" result="effect1_foregroundBlur_71_1583"/>
</filter>
</defs>
</svg>
