<svg width="651" height="649" viewBox="0 0 651 649" fill="none" xmlns="http://www.w3.org/2000/svg">
<g opacity="0.72" filter="url(#filter0_f_71_1583)">
<path d="M15.7971 407.657L14.3863 406.24L12.9687 407.65L14.3794 409.068L15.7971 407.657ZM240.814 633.773L239.397 635.184L240.807 636.601L242.225 635.191L240.814 633.773ZM635.276 241.228L636.687 242.645L638.105 241.234L636.694 239.817L635.276 241.228ZM410.259 15.1119L411.677 13.7011L410.266 12.2835L408.848 13.6942L410.259 15.1119ZM414.565 134.27L413.154 132.853L411.699 134.301L413.185 135.718L414.565 134.27ZM517.551 237.759L516.098 239.133L517.508 240.623L518.962 239.177L517.551 237.759ZM531.461 187.942L530.043 189.352L531.454 190.77L532.872 189.359L531.461 187.942ZM463.392 119.54L461.981 118.122L460.563 119.533L461.974 120.951L463.392 119.54ZM509.405 98.4386L510.823 97.0279L509.412 95.6102L507.994 97.021L509.405 98.4386ZM552.786 142.031L554.197 143.449L555.614 142.038L554.204 140.621L552.786 142.031ZM442.079 160.5L443.496 159.089L443.478 159.071L443.459 159.053L442.079 160.5ZM490.397 209.055L491.85 207.68L491.833 207.662L491.815 207.644L490.397 209.055ZM134.226 412.542L135.644 411.131L134.233 409.714L132.815 411.124L134.226 412.542ZM237.565 516.385L238.975 517.803L240.393 516.392L238.982 514.974L237.565 516.385ZM186.619 530.403L188.029 531.821L189.447 530.41L188.036 528.992L186.619 530.403ZM118.902 462.356L120.319 460.945L118.909 459.527L117.491 460.938L118.902 462.356ZM99.3471 507.21L97.9363 505.792L96.5186 507.203L97.9294 508.62L99.3471 507.21ZM142.728 550.802L141.31 552.213L142.721 553.631L144.139 552.22L142.728 550.802ZM14.3794 409.068L25.6656 420.409L28.5009 417.588L17.2147 406.247L14.3794 409.068ZM25.0187 395.659L14.3863 406.24L17.2079 409.075L27.8403 398.494L25.0187 395.659ZM28.8081 420.011C31.6859 415.107 33.1141 411.317 32.875 407.487C32.639 403.708 30.7894 400.244 28.1216 396.01L24.7374 398.143C27.4164 402.395 28.717 405.081 28.8828 407.736C29.0454 410.341 28.1271 413.269 25.3583 417.986L28.8081 420.011ZM242.225 635.191L252.857 624.61L250.036 621.775L239.403 632.355L242.225 635.191ZM229.874 625.615L239.397 635.184L242.232 632.362L232.709 622.793L229.874 625.615ZM252.519 621.504C248.316 618.832 244.703 617.228 240.99 617.38C237.246 617.534 233.846 619.449 230.006 622.672L232.577 625.736C236.206 622.691 238.753 621.475 241.154 621.377C243.586 621.277 246.317 622.302 250.374 624.88L252.519 621.504ZM626.055 253.226L636.687 242.645L633.865 239.81L623.233 250.391L626.055 253.226ZM636.694 239.817L626.466 229.539L623.631 232.36L633.859 242.638L636.694 239.817ZM626.318 250.714C623.894 247.005 622.871 244.366 622.898 241.785C622.927 239.178 624.03 236.264 626.734 232.025L623.362 229.874C620.536 234.304 618.939 237.997 618.899 241.741C618.858 245.512 620.398 248.967 622.97 252.903L626.318 250.714ZM422.963 25.0423L411.677 13.7011L408.841 16.5226L420.128 27.8639L422.963 25.0423ZM408.848 13.6942L398.216 24.275L401.037 27.1103L411.67 16.5295L408.848 13.6942ZM420.459 24.7739C416.148 27.5626 413.184 28.7324 410.472 28.6707C407.788 28.6097 404.928 27.3288 400.866 24.1227L398.388 27.2626C402.671 30.6428 406.385 32.5788 410.381 32.6697C414.35 32.76 418.173 31.0169 422.632 28.1324L420.459 24.7739ZM473.398 75.7234L422.963 25.0423L420.128 27.8639L470.562 78.545L473.398 75.7234ZM470.569 75.7166L413.154 132.853L415.976 135.688L473.391 78.5519L470.569 75.7166ZM626.466 229.539L576.384 179.212L573.548 182.034L623.631 232.36L626.466 229.539ZM518.962 239.177L576.377 182.041L573.555 179.205L516.14 236.341L518.962 239.177ZM576.384 179.212L558.396 161.137L555.561 163.959L573.548 182.034L576.384 179.212ZM555.568 161.13L530.05 186.524L532.872 189.359L558.389 163.965L555.568 161.13ZM532.879 186.531L464.809 118.129L461.974 120.951L530.043 189.352L532.879 186.531ZM490.327 92.7353L473.398 75.7234L470.562 78.545L487.492 95.5568L490.327 92.7353ZM464.802 120.957L490.32 95.5637L487.499 92.7284L461.981 118.122L464.802 120.957ZM502.671 105.14L490.327 92.7353L487.492 95.5568L499.836 107.961L502.671 105.14ZM502.664 107.968L510.816 99.8563L507.994 97.021L499.843 105.133L502.664 107.968ZM507.987 99.8494L551.368 143.442L554.204 140.621L510.823 97.0279L507.987 99.8494ZM558.396 161.137L546.052 148.733L543.217 151.554L555.561 163.959L558.396 161.137ZM546.052 148.733L502.671 105.14L499.836 107.961L543.217 151.554L546.052 148.733ZM551.375 140.614L543.224 148.726L546.045 151.561L554.197 143.449L551.375 140.614ZM413.185 135.718L440.698 161.948L443.459 159.053L415.945 132.823L413.185 135.718ZM440.226 159.745C433.753 175.626 440.993 191.692 452.254 201.999C457.91 207.177 464.695 211.028 471.541 212.777C478.388 214.525 485.426 214.194 491.388 210.792L489.406 207.318C484.571 210.077 478.657 210.465 472.531 208.901C466.403 207.336 460.19 203.842 454.955 199.049C444.432 189.416 438.311 175.043 443.931 161.255L440.226 159.745ZM488.944 210.429L516.098 239.133L519.004 236.384L491.85 207.68L488.944 210.429ZM440.661 161.911L488.98 210.466L491.815 207.644L443.496 159.089L440.661 161.911ZM25.6656 420.409L75.7477 470.736L78.583 467.915L28.5009 417.588L25.6656 420.409ZM78.5762 470.743L135.637 413.96L132.815 411.124L75.7546 467.908L78.5762 470.743ZM179.086 574.579L229.874 625.615L232.709 622.793L181.922 571.758L179.086 574.579ZM236.154 514.967L179.093 571.751L181.915 574.586L238.975 517.803L236.154 514.967ZM160.746 556.15L179.086 574.579L181.922 571.758L163.582 553.328L160.746 556.15ZM163.575 556.157L188.029 531.821L185.208 528.986L160.753 553.321L163.575 556.157ZM188.036 528.992L120.319 460.945L117.484 463.767L185.201 531.814L188.036 528.992ZM75.7477 470.736L93.0296 488.102L95.8649 485.281L78.583 467.915L75.7477 470.736ZM117.491 460.938L93.0365 485.274L95.858 488.109L120.313 463.773L117.491 460.938ZM93.0296 488.102L105.727 500.861L108.562 498.04L95.8649 485.281L93.0296 488.102ZM105.733 498.033L97.9363 505.792L100.758 508.627L108.555 500.868L105.733 498.033ZM97.9294 508.62L141.31 552.213L144.146 549.392L100.765 505.799L97.9294 508.62ZM105.727 500.861L149.108 544.454L151.943 541.632L108.562 498.04L105.727 500.861ZM149.108 544.454L160.746 556.15L163.582 553.328L151.943 541.632L149.108 544.454ZM144.139 552.22L151.936 544.461L149.114 541.626L141.317 549.385L144.139 552.22ZM132.808 413.953L160.318 441.597L163.154 438.775L135.644 411.131L132.808 413.953ZM162.698 441.939C173.382 436.073 187.696 441.284 198.086 451.639C208.471 461.988 213.688 476.229 207.606 487.052L211.093 489.012C218.504 475.826 211.774 459.632 200.909 448.805C190.049 437.983 173.809 431.276 160.773 438.433L162.698 441.939ZM207.932 489.443L236.147 517.796L238.982 514.974L210.767 486.621L207.932 489.443ZM210.767 486.621L163.154 438.775L160.318 441.597L207.932 489.443L210.767 486.621ZM173.698 479.07C175.027 477.678 175.773 476.927 177.164 475.62L174.426 472.704C172.971 474.07 172.173 474.875 170.805 476.307L173.698 479.07ZM477.34 176.902C478.267 176.046 478.896 175.425 480.265 173.992L477.372 171.229C476.041 172.623 475.474 173.181 474.627 173.963L477.34 176.902ZM398.216 24.275L211.617 209.967L214.439 212.802L401.037 27.1103L398.216 24.275ZM211.617 209.967L25.0187 395.659L27.8403 398.494L214.439 212.802L211.617 209.967ZM252.857 624.61L439.456 438.918L436.634 436.083L250.036 621.775L252.857 624.61ZM439.456 438.918L626.055 253.226L623.233 250.391L436.634 436.083L439.456 438.918ZM324.302 329.198C326.398 327.071 327.6 325.862 329.942 323.586L327.153 320.718C324.785 323.02 323.561 324.25 321.452 326.391L324.302 329.198ZM211.61 212.795L282.149 283.678L284.984 280.857L214.446 209.974L211.61 212.795ZM284.921 283.739C312.486 258.359 345.78 264.043 365.79 283.464C375.806 293.186 382.443 306.317 383.351 320.676C384.256 335.004 379.467 350.712 366.356 365.653L369.363 368.291C383.109 352.626 388.32 335.898 387.343 320.424C386.367 304.981 379.237 290.942 368.576 280.594C347.228 259.874 311.52 253.811 282.212 280.796L284.921 283.739ZM366.442 368.383L436.628 438.911L439.463 436.09L369.277 365.561L366.442 368.383ZM282.086 280.922C254.466 311.311 260.394 347.308 281.223 368.605C291.617 379.233 305.741 386.226 321.248 387.026C336.784 387.826 353.554 382.402 369.19 368.465L366.529 365.479C351.605 378.78 335.845 383.772 321.454 383.031C307.034 382.288 293.834 375.779 284.082 365.808C264.618 345.906 258.96 312.314 285.046 283.612L282.086 280.922ZM282.149 283.678L366.442 368.383L369.277 365.561L284.984 280.857L282.149 283.678Z" fill="#FCF6F8"/>
</g>
<defs>
<filter id="filter0_f_71_1583" x="-4" y="-5" width="659.428" height="658.532" filterUnits="userSpaceOnUse" color-interpolation-filters="sRGB">
<feFlood flood-opacity="0" result="BackgroundImageFix"/>
<feBlend mode="normal" in="SourceGraphic" in2="BackgroundImageFix" result="shape"/>
<feGaussianBlur stdDeviation="6" result="effect1_foregroundBlur_71_1583"/>
</filter>
</defs>
</svg>
