<svg width="644" height="610" viewBox="0 0 644 610" fill="none" xmlns="http://www.w3.org/2000/svg">
<g filter="url(#filter0_if_58_1117)">
<path d="M8.08973 375.911L6.10667 373.66L3.85557 375.643L5.83863 377.894L8.08973 375.911ZM218.955 615.278L216.704 617.261L218.687 619.512L220.939 617.529L218.955 615.278ZM636.535 247.42L638.518 249.671L640.769 247.688L638.786 245.437L636.535 247.42ZM425.669 8.05252L427.92 6.06946L425.937 3.81836L423.686 5.80142L425.669 8.05252ZM422.729 127.252L420.746 125.001L418.435 127.037L420.531 129.294L422.729 127.252ZM519.238 236.806L516.937 238.731L518.912 241.091L521.221 239.057L519.238 236.806ZM536.148 187.926L533.897 189.909L535.88 192.16L538.131 190.177L536.148 187.926ZM472.36 115.515L470.377 113.264L468.126 115.247L470.109 117.498L472.36 115.515ZM519.57 97.2482L521.821 95.2651L519.838 93.014L517.587 94.9971L519.57 97.2482ZM560.223 143.396L562.206 145.647L564.457 143.664L562.474 141.413L560.223 143.396ZM448.598 155.105L450.849 153.122L450.823 153.093L450.796 153.064L448.598 155.105ZM493.878 206.505L496.178 204.58L496.154 204.551L496.129 204.522L493.878 206.505ZM126.003 387.981L128.254 385.997L126.271 383.746L124.02 385.729L126.003 387.981ZM222.843 497.909L224.826 500.16L227.077 498.177L225.094 495.926L222.843 497.909ZM171.139 508.807L173.122 511.058L175.373 509.075L173.39 506.824L171.139 508.807ZM107.681 436.771L109.932 434.788L107.949 432.537L105.698 434.52L107.681 436.771ZM85.4379 480.355L83.4549 478.103L81.2038 480.087L83.1868 482.338L85.4379 480.355ZM126.091 526.502L123.84 528.485L125.823 530.736L128.074 528.753L126.091 526.502ZM5.83863 377.894L16.415 389.9L20.9172 385.934L10.3408 373.928L5.83863 377.894ZM17.3622 363.744L6.10667 373.66L10.0728 378.162L21.3283 368.247L17.3622 363.744ZM21.1564 389.589C24.3568 384.825 26.153 380.921 26.1464 376.777C26.14 372.709 24.379 368.937 21.9759 364.553L16.7146 367.438C19.1329 371.849 20.1427 374.408 20.1464 376.786C20.1501 379.089 19.196 381.748 16.1758 386.244L21.1564 389.589ZM220.939 617.529L232.194 607.614L228.228 603.112L216.972 613.027L220.939 617.529ZM207.781 607.131L216.704 617.261L221.207 613.295L212.283 603.165L207.781 607.131ZM231.971 602.933C227.902 599.985 224.182 598.007 220.147 597.926C216.064 597.845 212.33 599.713 208.246 602.737L211.817 607.559C215.569 604.781 217.961 603.884 220.028 603.925C222.141 603.967 224.594 604.997 228.451 607.792L231.971 602.933ZM627.262 259.586L638.518 249.671L634.552 245.169L623.296 255.084L627.262 259.586ZM638.786 245.437L629.201 234.556L624.699 238.522L634.284 249.403L638.786 245.437ZM627.886 255.849C625.724 252.058 624.98 249.574 625.144 247.296C625.31 244.979 626.454 242.324 629.377 238.303L624.524 234.775C621.4 239.071 619.447 242.848 619.159 246.866C618.868 250.923 620.311 254.678 622.673 258.821L627.886 255.849ZM438.497 18.0753L427.92 6.06946L423.418 10.0356L433.994 22.0415L438.497 18.0753ZM423.686 5.80142L412.431 15.7167L416.397 20.2189L427.652 10.3036L423.686 5.80142ZM434.772 17.4452C430.338 19.9452 427.532 20.8029 425.142 20.6028C422.794 20.4062 420.219 19.1303 416.412 15.7302L412.415 20.2055C416.538 23.8865 420.33 26.2209 424.641 26.5818C428.91 26.9393 433.055 25.3017 437.719 22.6716L434.772 17.4452ZM485.76 71.7266L438.497 18.0753L433.994 22.0415L481.257 75.6927L485.76 71.7266ZM481.525 71.4586L420.746 125.001L424.712 129.503L485.492 75.9608L481.525 71.4586ZM629.201 234.556L582.269 181.28L577.766 185.246L624.699 238.522L629.201 234.556ZM521.221 239.057L582.001 185.514L578.034 181.012L517.255 234.555L521.221 239.057ZM582.269 181.28L565.413 162.146L560.91 166.112L577.766 185.246L582.269 181.28ZM561.178 161.878L534.165 185.675L538.131 190.177L565.145 166.38L561.178 161.878ZM538.399 185.943L474.611 113.532L470.109 117.498L533.897 189.909L538.399 185.943ZM501.624 89.7354L485.76 71.7266L481.257 75.6927L497.122 93.7015L501.624 89.7354ZM474.343 117.766L501.356 93.9696L497.39 89.4674L470.377 113.264L474.343 117.766ZM513.192 102.867L501.624 89.7354L497.122 93.7015L508.69 106.833L513.192 102.867ZM512.924 107.101L521.553 99.4993L517.587 94.9971L508.958 102.599L512.924 107.101ZM517.319 99.2312L557.972 145.379L562.474 141.413L521.821 95.2651L517.319 99.2312ZM565.413 162.146L553.845 149.014L549.343 152.981L560.91 166.112L565.413 162.146ZM553.845 149.014L513.192 102.867L508.69 106.833L549.343 152.981L553.845 149.014ZM558.24 141.145L549.611 148.746L553.577 153.249L562.206 145.647L558.24 141.145ZM420.531 129.294L446.4 157.147L450.796 153.064L424.927 125.211L420.531 129.294ZM445.894 153.806C438.223 169.774 444.727 186.689 455.515 197.841C460.945 203.455 467.62 207.809 474.524 210.027C481.43 212.245 488.754 212.374 495.203 209.197L492.552 203.814C487.849 206.131 482.202 206.191 476.359 204.314C470.515 202.437 464.663 198.669 459.827 193.67C450.083 183.595 445.1 169.316 451.302 156.404L445.894 153.806ZM491.577 208.431L516.937 238.731L521.538 234.881L496.178 204.58L491.577 208.431ZM446.347 157.088L491.627 208.489L496.129 204.522L450.849 153.122L446.347 157.088ZM16.415 389.9L63.3475 443.176L67.8497 439.21L20.9172 385.934L16.415 389.9ZM67.5816 443.444L127.986 390.232L124.02 385.729L63.6155 438.942L67.5816 443.444ZM160.187 553.105L207.781 607.131L212.283 603.165L164.689 549.138L160.187 553.105ZM220.86 495.658L160.455 548.87L164.421 553.373L224.826 500.16L220.86 495.658ZM143.001 533.595L160.187 553.105L164.689 549.138L147.503 529.629L143.001 533.595ZM147.235 533.863L173.122 511.058L169.156 506.556L143.269 529.361L147.235 533.863ZM173.39 506.824L109.932 434.788L105.43 438.755L168.888 510.79L173.39 506.824ZM63.3475 443.176L79.5425 461.56L84.0447 457.594L67.8497 439.21L63.3475 443.176ZM105.698 434.52L79.8105 457.326L83.7767 461.828L109.664 439.023L105.698 434.52ZM79.5425 461.56L91.4409 475.066L95.9431 471.1L84.0447 457.594L79.5425 461.56ZM91.7089 470.832L83.4549 478.103L87.421 482.606L95.675 475.334L91.7089 470.832ZM83.1868 482.338L123.84 528.485L128.342 524.519L87.689 478.372L83.1868 482.338ZM91.4409 475.066L132.094 521.214L136.596 517.248L95.9431 471.1L91.4409 475.066ZM132.094 521.214L143.001 533.595L147.503 529.629L136.596 517.248L132.094 521.214ZM128.074 528.753L136.328 521.482L132.362 516.98L124.108 524.251L128.074 528.753ZM123.752 389.964L149.532 419.228L154.034 415.262L128.254 385.997L123.752 389.964ZM153.064 419.957C163.479 415.038 176.991 420.706 186.622 431.548C196.248 442.383 200.242 456.405 193.881 466.269L198.923 469.521C207.488 456.24 201.407 439.157 191.108 427.563C180.815 415.977 164.555 407.893 150.502 414.532L153.064 419.957ZM194.151 469.878L220.592 499.892L225.094 495.926L198.653 465.912L194.151 469.878ZM198.653 465.912L154.034 415.262L149.532 419.228L194.151 469.878L198.653 465.912ZM162.04 457.517C163.441 456.218 164.218 455.525 165.669 454.319L161.836 449.704C160.283 450.994 159.424 451.761 157.961 453.117L162.04 457.517ZM483.43 174.393C484.429 173.578 485.111 172.982 486.574 171.625L482.495 167.225C481.092 168.526 480.508 169.033 479.636 169.745L483.43 174.393ZM412.431 15.7167L214.896 189.731L218.862 194.233L416.397 20.2189L412.431 15.7167ZM214.896 189.731L17.3622 363.744L21.3283 368.247L218.862 194.233L214.896 189.731ZM232.194 607.614L429.728 433.6L425.762 429.098L228.228 603.112L232.194 607.614ZM429.728 433.6L627.262 259.586L623.296 255.084L425.762 429.098L429.728 433.6ZM321.459 317.081C323.677 315.088 324.945 313.96 327.413 311.836L323.5 307.288C320.989 309.448 319.687 310.606 317.448 312.618L321.459 317.081ZM214.628 193.965L280.73 269.001L285.233 265.035L219.131 189.999L214.628 193.965ZM284.876 269.345C313.472 246.061 345.763 253.625 364.241 273.882C373.498 284.029 379.216 297.303 379.248 311.42C379.281 325.489 373.667 340.63 359.843 354.575L364.104 358.799C378.946 343.827 385.285 327.199 385.248 311.406C385.212 295.661 378.839 280.981 368.674 269.838C348.311 247.516 312.44 239.163 281.087 264.692L284.876 269.345ZM359.722 358.67L425.494 433.332L429.996 429.366L364.225 354.704L359.722 358.67ZM280.888 264.869C251.064 293.922 254.825 330.817 274.641 353.709C284.521 365.122 298.418 373.096 314.118 374.866C329.861 376.641 347.188 372.152 363.83 359.044L360.117 354.331C344.6 366.553 328.824 370.486 314.79 368.904C300.712 367.316 288.156 360.153 279.178 349.782C261.278 329.103 257.701 295.833 285.075 269.167L280.888 264.869ZM280.73 269.001L359.722 358.67L364.225 354.704L285.233 265.035L280.73 269.001Z" fill="#F4EEEF"/>
</g>
<defs>
<filter id="filter0_if_58_1117" x="0.855469" y="0.818359" width="642.914" height="621.694" filterUnits="userSpaceOnUse" color-interpolation-filters="sRGB">
<feFlood flood-opacity="0" result="BackgroundImageFix"/>
<feBlend mode="normal" in="SourceGraphic" in2="BackgroundImageFix" result="shape"/>
<feColorMatrix in="SourceAlpha" type="matrix" values="0 0 0 0 0 0 0 0 0 0 0 0 0 0 0 0 0 0 127 0" result="hardAlpha"/>
<feOffset dy="2"/>
<feGaussianBlur stdDeviation="2"/>
<feComposite in2="hardAlpha" operator="arithmetic" k2="-1" k3="1"/>
<feColorMatrix type="matrix" values="0 0 0 0 0 0 0 0 0 0 0 0 0 0 0 0 0 0 0.48 0"/>
<feBlend mode="normal" in2="shape" result="effect1_innerShadow_58_1117"/>
<feGaussianBlur stdDeviation="1.5" result="effect2_foregroundBlur_58_1117"/>
</filter>
</defs>
</svg>
