<svg width="93" height="100" viewBox="0 0 93 100" fill="none" xmlns="http://www.w3.org/2000/svg">
<path d="M36.8102 18.6944C35.9448 12.0896 35.9381 8.66398 36.8102 3.10648M17.4306 33.8611C14.1608 31.8133 12.5147 29.7942 9.84722 24.5926M17.4306 63.3519C11.5779 65.1245 7.96127 65.541 1 65.4583M29.2269 83.5741C26.1259 89.5553 24.1043 91.9448 20.3796 95.7917M51.9769 98.3194C52.4855 94.0391 52.5673 91.5093 51.9769 86.5231M78.9398 91.1574C75.9888 87.6307 74.7873 85.5004 73.0417 81.4676M92 69.6713C88.3093 65.6067 85.9819 63.689 81.4676 60.8241M78.9398 33.8611C83.4571 33.2082 85.4896 32.6479 88.2083 31.3333M59.1389 15.3241L67.9861 1" stroke="#FCF6F8" stroke-width="1.68519" stroke-linecap="round" stroke-linejoin="round"/>
</svg>
