<svg width="132" height="141" viewBox="0 0 132 141" fill="none" xmlns="http://www.w3.org/2000/svg">
<path d="M52.3704 26.8889C51.1531 17.5986 51.1437 12.7801 52.3704 4.96296M25.1111 48.2222C20.5119 45.3417 18.1965 42.5017 14.4444 35.1852M25.1111 89.7037C16.8787 92.1971 11.7917 92.7829 2 92.6667M41.7037 118.148C37.342 126.561 34.4984 129.922 29.2593 135.333M73.7037 138.889C74.4191 132.868 74.5342 129.31 73.7037 122.296M111.63 128.815C107.479 123.854 105.789 120.858 103.333 115.185M130 98.5926C124.809 92.8753 121.535 90.178 115.185 86.1481M111.63 48.2222C117.984 47.3039 120.842 46.5157 124.667 44.6667M83.7778 22.1481L96.2222 2" stroke="#FCF6F8" stroke-width="2.37037" stroke-linecap="round" stroke-linejoin="round"/>
</svg>
