<svg width="66" height="104" viewBox="0 0 66 104" fill="none" xmlns="http://www.w3.org/2000/svg">
<g filter="url(#filter0_d_374_810)">
<g filter="url(#filter1_i_374_810)">
<path fill-rule="evenodd" clip-rule="evenodd" d="M27.7442 57.7813C19.5071 74.6142 22.2825 84.9108 30.9675 83.0306C34.0101 84.4871 35.5209 84.6124 37.8618 83.7469C46.0992 83.0306 45.6515 72.2862 41.5328 65.0338L37.7653 58.4081L45.9201 43.0079C49.5017 36.6507 50.8447 26.2645 45.0247 19.5493C43.2087 17.454 42.5464 16.7137 39.8316 16.8632C36.9428 15.1046 35.2654 14.4457 31.3257 15.5202C27.2967 15.5202 24.7808 16.5609 23.0883 18.9226C16.4627 22.8622 14.7616 33.7856 20.4022 44.0823L27.7442 57.7813ZM28.55 42.202C25.0377 35.833 24.9301 29.4149 27.0999 25.2796C29.0785 21.5087 32.9507 19.636 37.8618 21.4296C40.559 19.7261 41.9389 19.7254 44.0398 22.3249C48.5988 27.9658 46.2782 39.1578 44.0398 43.4555L37.0525 57.1546L32.3176 48.8277L28.55 42.202ZM28.1919 58.9453C33.4961 70.3413 33.5159 75.3881 27.9233 81.8666C22.5217 77.3709 22.481 72.4389 28.1919 58.9453Z" fill="#AA193B"/>
</g>
<path d="M37.0525 57.1546L44.0398 43.4555C46.2782 39.1578 48.5988 27.9658 44.0398 22.3249C41.9389 19.7254 40.559 19.7261 37.8618 21.4296C32.9507 19.636 29.0785 21.5087 27.0999 25.2796M37.0525 57.1546L37.7653 58.4081M37.0525 57.1546L32.3176 48.8277M37.7653 58.4081L41.5328 65.0338C45.6515 72.2862 46.0992 83.0306 37.8618 83.7469C35.5209 84.6124 34.0101 84.4871 30.9675 83.0306C22.2825 84.9108 19.5071 74.6142 27.7442 57.7813L20.4022 44.0823C14.7616 33.7856 16.4627 22.8622 23.0883 18.9226C24.7808 16.5609 27.2967 15.5202 31.3257 15.5202C35.2654 14.4457 36.9428 15.1046 39.8316 16.8632C42.5464 16.7137 43.2087 17.454 45.0247 19.5493C50.8447 26.2645 49.5017 36.6507 45.9201 43.0079L37.7653 58.4081ZM27.0999 25.2796C24.9301 29.4149 25.0377 35.833 28.55 42.202L32.3176 48.8277M27.0999 25.2796C37.0525 20.7133 42.2492 32.9798 32.3176 48.8277M28.1919 58.9453C33.4961 70.3413 33.5159 75.3881 27.9233 81.8666C22.5217 77.3709 22.481 72.4389 28.1919 58.9453Z" stroke="#EAE6E4" stroke-width="2"/>
<path d="M33.9218 82.5834L33.0264 83.3892C33.111 83.1353 33.0836 82.9881 32.7578 82.7625C33.2383 82.5717 33.5012 82.4088 33.9218 81.8671V82.5834Z" fill="#E8E8E6"/>
<path d="M35.2648 83.2997L34.1904 84.1055C34.5594 83.992 34.7649 83.9306 35.0858 84.1055C35.0889 83.789 35.3067 83.6126 35.802 83.2997H35.2648Z" fill="#E8E8E6"/>
<path d="M34.8171 82.4939L33.295 83.8369L33.7427 83.9264L34.9962 82.7625C35.1753 82.8519 35.8916 82.8519 36.1602 82.5833L37.4137 80.7031C37.6505 80.6746 37.7432 80.7352 37.7718 81.0612C38.3091 80.3449 37.5032 79.8077 37.0556 80.4345L36.1602 81.688H36.0707V81.4194L36.6079 80.6135C36.5462 80.4387 36.5638 80.3407 36.6079 80.1659L35.5334 81.4194H35.2648V81.2403L35.9811 80.524C36.6974 79.6285 35.8916 78.8228 34.9962 79.8078C35.4439 79.3601 35.9811 79.9868 35.623 80.2555L34.8171 80.9717C34.1009 81.688 34.1009 81.7775 34.8171 82.4939Z" fill="#E8E8E6"/>
<path d="M33.0264 83.3892L32.7892 83.3102L32.49 84.2083L33.1937 83.575L33.0264 83.3892ZM33.9218 82.5834L34.089 82.7692L34.1718 82.6947V82.5834H33.9218ZM33.9218 81.8671H34.1718V81.1375L33.7243 81.7138L33.9218 81.8671ZM32.7578 82.7625L32.6656 82.5301L32.2318 82.7023L32.6155 82.968L32.7578 82.7625ZM34.1904 84.1055L34.0404 83.9055L34.2639 84.3445L34.1904 84.1055ZM35.2648 83.2997V83.0497H35.1815L35.1148 83.0997L35.2648 83.2997ZM35.802 83.2997L35.9356 83.511L36.6658 83.0497H35.802V83.2997ZM35.0858 84.1055L34.9661 84.325L35.3316 84.5242L35.3357 84.108L35.0858 84.1055ZM33.295 83.8369L33.1296 83.6494L32.7514 83.9832L33.246 84.0821L33.295 83.8369ZM34.8171 82.4939L34.9826 82.6813L35.1821 82.5053L34.9939 82.3171L34.8171 82.4939ZM34.8171 80.9717L34.6511 80.7849L34.6456 80.7898L34.6404 80.795L34.8171 80.9717ZM35.623 80.2555L35.473 80.0555L35.4647 80.0617L35.4569 80.0686L35.623 80.2555ZM34.9962 79.8078L34.8112 79.6397L35.173 79.9846L34.9962 79.8078ZM35.9811 80.524L36.1579 80.7008C36.1644 80.6943 36.1706 80.6874 36.1763 80.6802L35.9811 80.524ZM35.2648 81.2403L35.0881 81.0635L35.0148 81.1367V81.2403H35.2648ZM35.2648 81.4194H35.0148V81.6694H35.2648V81.4194ZM35.5334 81.4194V81.6694H35.6484L35.7233 81.5821L35.5334 81.4194ZM36.6079 80.1659L36.8503 80.2269L36.4181 80.0032L36.6079 80.1659ZM36.6079 80.6135L36.8159 80.7522L36.8852 80.6482L36.8436 80.5304L36.6079 80.6135ZM36.0707 81.4194L35.8626 81.2807L35.8207 81.3437V81.4194H36.0707ZM36.0707 81.688H35.8207V81.938H36.0707V81.688ZM36.1602 81.688V81.938H36.2888L36.3636 81.8333L36.1602 81.688ZM37.0556 80.4345L36.8521 80.2892L36.8521 80.2892L37.0556 80.4345ZM37.7718 81.0612L37.5228 81.0831L37.58 81.7337L37.9718 81.2112L37.7718 81.0612ZM37.4137 80.7031L37.3839 80.4549L37.2696 80.4686L37.2057 80.5644L37.4137 80.7031ZM36.1602 82.5833L36.3369 82.7601L36.3545 82.7426L36.3682 82.722L36.1602 82.5833ZM34.9962 82.7625L35.108 82.5388L34.953 82.4614L34.8261 82.5793L34.9962 82.7625ZM33.7427 83.9264L33.6937 84.1715L33.8191 84.1966L33.9128 84.1096L33.7427 83.9264ZM33.1937 83.575L34.089 82.7692L33.7545 82.3976L32.8592 83.2034L33.1937 83.575ZM34.1718 82.5834V81.8671H33.6718V82.5834H34.1718ZM33.7243 81.7138C33.5216 81.9748 33.3667 82.1319 33.2133 82.2456C33.0606 82.3589 32.898 82.4378 32.6656 82.5301L32.8501 82.9948C33.0981 82.8964 33.3072 82.7985 33.5112 82.6472C33.7146 82.4963 33.9013 82.3011 34.1192 82.0204L33.7243 81.7138ZM32.6155 82.968C32.7683 83.0739 32.8035 83.131 32.8125 83.1546C32.8179 83.1686 32.8262 83.1992 32.7892 83.3102L33.2636 83.4682C33.3112 83.3253 33.3482 83.1554 33.2795 82.9759C33.2145 82.806 33.0731 82.6767 32.9002 82.5569L32.6155 82.968ZM34.3404 84.3055L35.4148 83.4997L35.1148 83.0997L34.0404 83.9055L34.3404 84.3055ZM35.2648 83.5497H35.802V83.0497H35.2648V83.5497ZM35.6685 83.0883C35.424 83.2428 35.2195 83.3804 35.0782 83.529C34.924 83.6911 34.8381 83.8731 34.8358 84.103L35.3357 84.108C35.3366 84.0214 35.3612 83.9569 35.4405 83.8735C35.5327 83.7766 35.6848 83.6695 35.9356 83.511L35.6685 83.0883ZM35.2054 83.886C35.0094 83.7792 34.832 83.7372 34.6422 83.7478C34.4681 83.7575 34.2932 83.8123 34.1169 83.8666L34.2639 84.3445C34.4565 84.2852 34.569 84.2526 34.67 84.247C34.7555 84.2422 34.8412 84.2569 34.9661 84.325L35.2054 83.886ZM33.4604 84.0244L34.9826 82.6813L34.6517 82.3064L33.1296 83.6494L33.4604 84.0244ZM34.9939 82.3171C34.8131 82.1363 34.6918 82.0087 34.6148 81.9053C34.5383 81.8025 34.5299 81.7548 34.5299 81.7328C34.5299 81.7107 34.5383 81.663 34.6148 81.5603C34.6917 81.4569 34.8131 81.3293 34.9939 81.1485L34.6404 80.795C34.4631 80.9723 34.3158 81.1245 34.2137 81.2617C34.1111 81.3996 34.0299 81.5533 34.0299 81.7328C34.0299 81.9122 34.1111 82.0659 34.2137 82.2038C34.3158 82.341 34.463 82.4933 34.6404 82.6706L34.9939 82.3171ZM34.9832 81.1586L35.7891 80.4423L35.4569 80.0686L34.6511 80.7849L34.9832 81.1586ZM35.773 80.4555C35.9326 80.3358 36.0018 80.1626 35.9883 79.9898C35.9757 79.8276 35.8926 79.682 35.7813 79.5793C35.6683 79.475 35.5115 79.4011 35.3334 79.4011C35.1508 79.4011 34.9718 79.4786 34.8194 79.631L35.173 79.9846C35.2444 79.9131 35.3005 79.9011 35.3334 79.9011C35.3707 79.9011 35.4098 79.9168 35.4422 79.9467C35.4764 79.9783 35.4885 80.0118 35.4899 80.0287C35.4903 80.0349 35.4924 80.0409 35.473 80.0555L35.773 80.4555ZM35.1812 79.976C35.383 79.7539 35.5613 79.6537 35.6909 79.6203C35.8171 79.5878 35.8918 79.6178 35.9311 79.6512C36.0014 79.7109 36.1083 79.9648 35.7859 80.3678L36.1763 80.6802C36.5702 80.1877 36.6323 79.5909 36.2549 79.2702C36.0704 79.1134 35.8205 79.0706 35.5662 79.1361C35.3153 79.2007 35.0571 79.3691 34.8112 79.6397L35.1812 79.976ZM35.8043 80.3472L35.0881 81.0635L35.4416 81.4171L36.1579 80.7008L35.8043 80.3472ZM35.0148 81.2403V81.4194H35.5148V81.2403H35.0148ZM35.2648 81.6694H35.5334V81.1694H35.2648V81.6694ZM35.7233 81.5821L36.7977 80.3286L36.4181 80.0032L35.3436 81.2567L35.7233 81.5821ZM36.3655 80.1048C36.3437 80.191 36.3215 80.2832 36.3184 80.3816C36.315 80.4867 36.3331 80.5861 36.3721 80.6967L36.8436 80.5304C36.821 80.4661 36.8171 80.429 36.8181 80.3978C36.8193 80.3597 36.828 80.3155 36.8503 80.2269L36.3655 80.1048ZM36.3999 80.4749L35.8626 81.2807L36.2787 81.558L36.8159 80.7522L36.3999 80.4749ZM35.8207 81.4194V81.688H36.3207V81.4194H35.8207ZM36.0707 81.938H36.1602V81.438H36.0707V81.938ZM36.3636 81.8333L37.259 80.5798L36.8521 80.2892L35.9568 81.5427L36.3636 81.8333ZM37.259 80.5798C37.4158 80.3603 37.5727 80.398 37.6312 80.4428C37.6668 80.47 37.6964 80.5161 37.6998 80.5853C37.7033 80.6558 37.6795 80.7676 37.5718 80.9112L37.9718 81.2112C38.1328 80.9967 38.2097 80.7727 38.1992 80.5606C38.1887 80.3473 38.0895 80.1639 37.9349 80.0456C37.6129 79.7994 37.143 79.8819 36.8521 80.2892L37.259 80.5798ZM38.0209 81.0393C38.0065 80.8753 37.9732 80.6889 37.841 80.566C37.6959 80.4314 37.5089 80.4398 37.3839 80.4549L37.4435 80.9513C37.4934 80.9453 37.5171 80.9466 37.5261 80.9481C37.5303 80.9487 37.516 80.9467 37.5007 80.9324C37.4879 80.9205 37.4911 80.9153 37.4991 80.9402C37.5074 80.9662 37.5164 81.0104 37.5228 81.0831L38.0209 81.0393ZM37.2057 80.5644L35.9522 82.4447L36.3682 82.722L37.6217 80.8418L37.2057 80.5644ZM35.9834 82.4065C35.9534 82.4365 35.8977 82.4708 35.8102 82.5003C35.7251 82.5291 35.6245 82.5484 35.5209 82.5583C35.4177 82.5681 35.3182 82.5679 35.2375 82.5609C35.1972 82.5574 35.1642 82.5525 35.1394 82.5471C35.1123 82.5413 35.1041 82.5369 35.108 82.5388L34.8845 82.9861C34.9733 83.0305 35.0909 83.0501 35.1942 83.0591C35.3066 83.0688 35.4365 83.0686 35.5683 83.056C35.6998 83.0435 35.8399 83.0181 35.9702 82.9741C36.0981 82.9309 36.2326 82.8644 36.3369 82.7601L35.9834 82.4065ZM34.8261 82.5793L33.5726 83.7432L33.9128 84.1096L35.1663 82.9457L34.8261 82.5793ZM33.7917 83.6812L33.344 83.5918L33.246 84.0821L33.6937 84.1715L33.7917 83.6812Z" fill="#EAE6E4"/>
<path d="M41.3541 69.4214C40.939 67.8529 40.4888 67.6092 39.5634 67.5411C40.192 69.6902 40.5957 69.9159 41.3541 69.4214Z" fill="#E8E8E6"/>
<path d="M42.16 68.8842C41.4385 67.7856 41.3315 67.1796 41.6227 66.1085C42.9562 67.7865 42.8637 68.2831 42.16 68.8842Z" fill="#E8E8E6"/>
<path d="M42.6972 72.2865C42.0473 71.7368 41.943 71.3326 42.0704 70.4958L40.1902 66.3772C39.6898 66.3088 39.3261 65.9406 38.1308 63.1538C39.7088 64.2969 40.3349 64.9829 40.4588 66.3772L42.339 70.4958C42.7581 70.9186 42.9549 71.1934 42.6972 72.2865Z" fill="#E8E8E6"/>
<path d="M38.3099 62.4376C40.4169 64.5098 40.9996 65.3235 40.996 66.1085C41.466 65.1454 41.4866 64.5994 40.2797 63.6016L39.0262 62.348C38.8471 62.1689 38.9366 61.6317 39.3843 61.6317C38.2204 60.8259 38.0413 62.1733 38.3099 62.4376Z" fill="#E8E8E6"/>
<path d="M38.2204 64.4968C39.0021 66.3672 39.3886 66.8332 40.0111 66.9143C38.9851 67.5029 38.596 67.267 37.5938 64.5864C37.4147 64.1074 36.6984 64.4073 36.6982 65.1236C35.8028 63.6016 37.4385 62.6264 38.2204 64.4968Z" fill="#E8E8E6"/>
<path d="M41.2647 70.2272C40.2727 70.1965 39.7454 70.5674 38.8473 71.6597C39.0214 71.9755 38.9345 72.1518 38.6682 72.4656C39.0576 72.2127 39.2253 72.1956 39.3845 72.5551C39.9055 71.4532 40.362 70.984 41.2647 70.2272Z" fill="#E8E8E6"/>
<path d="M40.9066 72.7342C40.6289 72.0211 40.8528 71.5829 41.802 70.7644C41.724 71.2944 41.7356 71.5514 41.9811 71.8388C41.41 71.8901 41.1521 72.0849 40.9066 72.7342Z" fill="#E8E8E6"/>
<path d="M42.16 72.1074L41.3541 73.1819L41.8915 73.2714L42.16 72.8237V72.1074Z" fill="#E8E8E6"/>
<path d="M42.339 73.54C42.9346 73.2076 42.9055 72.9421 42.4287 72.376L42.339 73.54Z" fill="#E8E8E6"/>
<path d="M43.2346 73.8086L43.145 73.0923L43.5927 73.54V73.8086H43.2346Z" fill="#E8E8E6"/>
<path d="M43.3241 72.2865C43.1295 72.4376 43.1238 72.5378 43.2346 72.7342L43.6822 73.0923C43.5897 72.8353 43.6949 72.8118 43.9509 72.8237C43.6741 72.7327 43.5233 72.665 43.3241 72.2865Z" fill="#E8E8E6"/>
<path d="M43.6822 72.2865L43.2346 71.5702L44.0404 71.7493V72.2865H43.6822Z" fill="#E8E8E6"/>
<path d="M43.3241 71.2121C43.2284 70.5901 43.08 70.437 42.6972 70.4062V70.1376L43.6822 70.0481L43.7718 70.7644L43.3241 71.2121Z" fill="#E8E8E6"/>
<path d="M43.2346 68.8842L42.6972 69.4214H43.2346V68.8842Z" fill="#E8E8E6"/>
<path d="M41.3541 69.4214C40.939 67.8529 40.4888 67.6092 39.5634 67.5411C40.192 69.6902 40.5957 69.9159 41.3541 69.4214Z" stroke="#EAE6E4" stroke-width="0.5"/>
<path d="M42.16 68.8842C41.4385 67.7856 41.3315 67.1796 41.6227 66.1085C42.9562 67.7865 42.8637 68.2831 42.16 68.8842Z" stroke="#EAE6E4" stroke-width="0.5"/>
<path d="M42.6972 72.2865C42.0473 71.7368 41.943 71.3326 42.0704 70.4958L40.1902 66.3772C39.6898 66.3088 39.3261 65.9406 38.1308 63.1538C39.7088 64.2969 40.3349 64.9829 40.4588 66.3772L42.339 70.4958C42.7581 70.9186 42.9549 71.1934 42.6972 72.2865Z" stroke="#EAE6E4" stroke-width="0.5"/>
<path d="M38.3099 62.4376C40.4169 64.5098 40.9996 65.3235 40.996 66.1085C41.466 65.1454 41.4866 64.5994 40.2797 63.6016L39.0262 62.348C38.8471 62.1689 38.9366 61.6317 39.3843 61.6317C38.2204 60.8259 38.0413 62.1733 38.3099 62.4376Z" stroke="#EAE6E4" stroke-width="0.5"/>
<path d="M38.2204 64.4968C39.0021 66.3672 39.3886 66.8332 40.0111 66.9143C38.9851 67.5029 38.596 67.267 37.5938 64.5864C37.4147 64.1074 36.6984 64.4073 36.6982 65.1236C35.8028 63.6016 37.4385 62.6264 38.2204 64.4968Z" stroke="#EAE6E4" stroke-width="0.5"/>
<path d="M41.2647 70.2272C40.2727 70.1965 39.7454 70.5674 38.8473 71.6597C39.0214 71.9755 38.9345 72.1518 38.6682 72.4656C39.0576 72.2127 39.2253 72.1956 39.3845 72.5551C39.9055 71.4532 40.362 70.984 41.2647 70.2272Z" stroke="#EAE6E4" stroke-width="0.5"/>
<path d="M40.9066 72.7342C40.6289 72.0211 40.8528 71.5829 41.802 70.7644C41.724 71.2944 41.7356 71.5514 41.9811 71.8388C41.41 71.8901 41.1521 72.0849 40.9066 72.7342Z" stroke="#EAE6E4" stroke-width="0.5"/>
<path d="M42.16 72.1074L41.3541 73.1819L41.8915 73.2714L42.16 72.8237V72.1074Z" stroke="#EAE6E4" stroke-width="0.5"/>
<path d="M42.339 73.54C42.9346 73.2076 42.9055 72.9421 42.4287 72.376L42.339 73.54Z" stroke="#EAE6E4" stroke-width="0.5"/>
<path d="M43.2346 73.8086L43.145 73.0923L43.5927 73.54V73.8086H43.2346Z" stroke="#EAE6E4" stroke-width="0.5"/>
<path d="M43.3241 72.2865C43.1295 72.4376 43.1238 72.5378 43.2346 72.7342L43.6822 73.0923C43.5897 72.8353 43.6949 72.8118 43.9509 72.8237C43.6741 72.7327 43.5233 72.665 43.3241 72.2865Z" stroke="#EAE6E4" stroke-width="0.5"/>
<path d="M43.6822 72.2865L43.2346 71.5702L44.0404 71.7493V72.2865H43.6822Z" stroke="#EAE6E4" stroke-width="0.5"/>
<path d="M43.3241 71.2121C43.2284 70.5901 43.08 70.437 42.6972 70.4062V70.1376L43.6822 70.0481L43.7718 70.7644L43.3241 71.2121Z" stroke="#EAE6E4" stroke-width="0.5"/>
<path d="M43.2346 68.8842L42.6972 69.4214H43.2346V68.8842Z" stroke="#EAE6E4" stroke-width="0.5"/>
<path d="M22.2838 32.3527L21.5675 31.5469L20.7617 32.4422L21.5675 33.1585L22.2838 32.3527Z" fill="#E8E8E6" stroke="#EAE6E4" stroke-width="0.5"/>
<path d="M23.0871 22.6826L22.2812 23.2198L22.8185 24.0257L23.5348 23.4884L23.0871 22.6826Z" fill="#E8E8E6" stroke="#EAE6E4" stroke-width="0.5"/>
<path fill-rule="evenodd" clip-rule="evenodd" d="M19.5953 26.6223C21.3939 23.6676 25.7735 26.2641 23.9826 29.1293C21.8336 32.0839 18.0733 28.9502 19.5953 26.6223ZM20.9385 26.085C20.5073 26.43 20.278 26.6486 19.9536 27.0699C20.1469 27.1578 20.2834 27.1566 20.4471 27.1551C20.5147 27.1545 20.587 27.1539 20.6699 27.1594C20.9022 27.0077 20.9116 26.9923 21.0163 26.8205C21.0201 26.8143 21.024 26.8079 21.028 26.8013C21.0252 26.7225 21.0271 26.6535 21.0289 26.5896C21.0339 26.4145 21.0377 26.278 20.9385 26.085Z" fill="#E8E8E6" stroke="#EAE6E4" stroke-width="0.5"/>
<path d="M22.3704 28.4131L22.5495 27.4282L21.7436 26.9805L21.0273 27.8758L21.5646 28.5026L22.3704 28.4131Z" fill="#AA193B" stroke="#EAE6E4" stroke-width="0.5"/>
<path d="M20.8122 29.3687C20.4246 29.0047 20.2295 28.7551 19.9283 28.2923C20.2037 28.1832 20.3556 28.255 20.6499 28.2732C20.8277 28.4072 20.8384 28.4097 20.9713 28.6646C20.9246 28.9449 20.9625 29.1089 20.8122 29.3687Z" fill="#AA193B" stroke="#EAE6E4" stroke-width="0.5"/>
<path d="M23.0024 29.313C22.5085 29.51 22.1997 29.581 21.6529 29.6578C21.6707 29.362 21.8002 29.2549 21.9412 28.996C22.138 28.8917 22.1448 28.8831 22.432 28.8706C22.6661 29.0317 22.8307 29.0668 23.0024 29.313Z" fill="#AA193B" stroke="#EAE6E4" stroke-width="0.5"/>
<path d="M23.6365 27.1328C23.7103 27.6594 23.7059 27.9762 23.6504 28.5256C23.3674 28.4379 23.2941 28.2867 23.0762 28.0881C23.0217 27.8722 23.0149 27.8635 23.0712 27.5816C23.2832 27.3925 23.3566 27.241 23.6365 27.1328Z" fill="#AA193B" stroke="#EAE6E4" stroke-width="0.5"/>
<path d="M21.825 25.9484C22.3518 26.0205 22.6554 26.1109 23.1691 26.3137C23.0077 26.5622 22.8423 26.5916 22.5919 26.7473C22.3693 26.741 22.3592 26.7452 22.1032 26.6145C21.9789 26.3589 21.853 26.2472 21.825 25.9484Z" fill="#AA193B" stroke="#EAE6E4" stroke-width="0.5"/>
</g>
<defs>
<filter id="filter0_d_374_810" x="0" y="0" width="66" height="103.289" filterUnits="userSpaceOnUse" color-interpolation-filters="sRGB">
<feFlood flood-opacity="0" result="BackgroundImageFix"/>
<feColorMatrix in="SourceAlpha" type="matrix" values="0 0 0 0 0 0 0 0 0 0 0 0 0 0 0 0 0 0 127 0" result="hardAlpha"/>
<feOffset dy="2"/>
<feGaussianBlur stdDeviation="8"/>
<feComposite in2="hardAlpha" operator="out"/>
<feColorMatrix type="matrix" values="0 0 0 0 0.99 0 0 0 0 0.965656 0 0 0 0 0.97093 0 0 0 1 0"/>
<feBlend mode="normal" in2="BackgroundImageFix" result="effect1_dropShadow_374_810"/>
<feBlend mode="normal" in="SourceGraphic" in2="effect1_dropShadow_374_810" result="shape"/>
</filter>
<filter id="filter1_i_374_810" x="16" y="14" width="34" height="75.2886" filterUnits="userSpaceOnUse" color-interpolation-filters="sRGB">
<feFlood flood-opacity="0" result="BackgroundImageFix"/>
<feBlend mode="normal" in="SourceGraphic" in2="BackgroundImageFix" result="shape"/>
<feColorMatrix in="SourceAlpha" type="matrix" values="0 0 0 0 0 0 0 0 0 0 0 0 0 0 0 0 0 0 127 0" result="hardAlpha"/>
<feOffset dy="4"/>
<feGaussianBlur stdDeviation="4"/>
<feComposite in2="hardAlpha" operator="arithmetic" k2="-1" k3="1"/>
<feColorMatrix type="matrix" values="0 0 0 0 0.15 0 0 0 0 0.1215 0 0 0 0 0.129643 0 0 0 0.08 0"/>
<feBlend mode="normal" in2="shape" result="effect1_innerShadow_374_810"/>
</filter>
</defs>
</svg>
