<svg width="32" height="33" viewBox="0 0 32 33" fill="none" xmlns="http://www.w3.org/2000/svg">
<path fill-rule="evenodd" clip-rule="evenodd" d="M5.91707 22.4464C9.18497 22.4464 11.8341 19.7973 11.8341 16.5294C11.8341 13.2615 9.18497 10.6123 5.91707 10.6123C2.64916 10.6123 0 13.2615 0 16.5294C0 19.7973 2.64916 22.4464 5.91707 22.4464ZM6.07786 20.581C8.33343 20.581 10.1619 18.7525 10.1619 16.4969C10.1619 14.2414 8.33343 12.4129 6.07786 12.4129C3.82229 12.4129 1.9938 14.2414 1.9938 16.4969C1.9938 18.7525 3.82229 20.581 6.07786 20.581Z" fill="#FCF6F8"/>
<path fill-rule="evenodd" clip-rule="evenodd" d="M25.3404 11.8341C28.6083 11.8341 31.2575 9.18497 31.2575 5.91707C31.2575 2.64916 28.6083 0 25.3404 0C22.0725 0 19.4233 2.64916 19.4233 5.91707C19.4233 9.18497 22.0725 11.8341 25.3404 11.8341ZM25.3083 10.0333C27.5639 10.0333 29.3924 8.20475 29.3924 5.94919C29.3924 3.69362 27.5639 1.86513 25.3083 1.86513C23.0528 1.86513 21.2243 3.69362 21.2243 5.94919C21.2243 8.20475 23.0528 10.0333 25.3083 10.0333Z" fill="#FCF6F8"/>
<path fill-rule="evenodd" clip-rule="evenodd" d="M25.3404 32.9938C28.6083 32.9938 31.2575 30.3446 31.2575 27.0767C31.2575 23.8088 28.6083 21.1597 25.3404 21.1597C22.0725 21.1597 19.4233 23.8088 19.4233 27.0767C19.4233 30.3446 22.0725 32.9938 25.3404 32.9938ZM25.3082 31.1929C27.5638 31.1929 29.3923 29.3644 29.3923 27.1089C29.3923 24.8533 27.5638 23.0248 25.3082 23.0248C23.0527 23.0248 21.2242 24.8533 21.2242 27.1089C21.2242 29.3644 23.0527 31.1929 25.3082 31.1929Z" fill="#FCF6F8"/>
<path d="M10.9974 19.166L20.3232 24.3756" stroke="#FCF6F8" stroke-width="1.3816" stroke-linejoin="round"/>
<path d="M10.9974 13.8218L20.1681 8.74429" stroke="#FCF6F8" stroke-width="1.3816" stroke-linejoin="round"/>
</svg>
