<svg width="32" height="33" viewBox="0 0 32 33" fill="none" xmlns="http://www.w3.org/2000/svg">
<path fill-rule="evenodd" clip-rule="evenodd" d="M9.24769 0.30127C4.14033 0.30127 0 4.44161 0 9.54897V22.8899C0 27.9973 4.14034 32.1376 9.2477 32.1376H22.437C27.5444 32.1376 31.6847 27.9972 31.6847 22.8899V9.54896C31.6847 4.4416 27.5444 0.30127 22.437 0.30127H9.24769ZM9.09609 3.33341C5.747 3.33341 3.03203 6.04837 3.03203 9.39746V23.0416C3.03203 26.3907 5.747 29.1057 9.09609 29.1057H22.5886C25.9377 29.1057 28.6527 26.3907 28.6527 23.0416V9.39747C28.6527 6.04838 25.9377 3.33341 22.5886 3.33341H9.09609Z" fill="#FCF6F8"/>
<circle cx="24.332" cy="7.80541" r="2.04662" fill="#FCF6F8"/>
<path fill-rule="evenodd" clip-rule="evenodd" d="M15.8422 24.4059C20.3216 24.4059 23.9529 20.7747 23.9529 16.2953C23.9529 11.8158 20.3216 8.18457 15.8422 8.18457C11.3628 8.18457 7.73151 11.8158 7.73151 16.2953C7.73151 20.7747 11.3628 24.4059 15.8422 24.4059ZM15.7664 21.6771C18.6969 21.6771 21.0725 19.3015 21.0725 16.371C21.0725 13.4406 18.6969 11.065 15.7664 11.065C12.836 11.065 10.4604 13.4406 10.4604 16.371C10.4604 19.3015 12.836 21.6771 15.7664 21.6771Z" fill="#FCF6F8"/>
</svg>
