<svg width="85" height="84" viewBox="0 0 85 84" fill="none" xmlns="http://www.w3.org/2000/svg">
<g filter="url(#filter0_dif_288_794)">
<path d="M35.2443 49.9313L40.0623 69.8757C40.1123 70.0824 40.2929 70.1365 40.499 70.0064C40.708 69.8746 40.8876 69.5886 40.9307 69.3188L44.1731 49.0565C44.2168 48.7834 44.3986 48.4939 44.6102 48.3603C44.8148 48.2313 44.9951 48.2811 45.0495 48.4818L48.9929 63.0248C49.2144 63.8415 49.9483 64.0444 50.781 63.519L58.333 58.754C59.5594 57.9803 60.4297 56.0299 60.0716 54.8577L50.1996 22.5419C49.9619 21.7636 49.2397 21.582 48.4254 22.0958L40.8354 26.8847C40.012 27.4043 39.2945 28.5085 39.0802 29.5862L35.2529 48.8293C35.1715 49.2384 35.1686 49.6177 35.2443 49.9313Z" fill="#344042" stroke="#0D404B" stroke-opacity="0.64" stroke-width="0.542811"/>
<path d="M25.8951 25.1714L15.7472 22.5942C14.362 22.2424 13.3883 23.3429 13.7831 24.8139L24.7329 65.6058C25.0041 66.616 25.8534 67.4857 26.8046 67.7272L35.9305 70.0449C37.2931 70.391 38.2639 69.3304 37.9094 67.883L27.9816 27.3507C27.7289 26.3187 26.8666 25.4182 25.8951 25.1714Z" fill="#344042" stroke="#0D404B" stroke-opacity="0.64" stroke-width="0.542811"/>
<path d="M54.5485 31.3335L61.9879 55.9929C62.0561 56.2188 62.2461 56.4136 62.4561 56.4728C62.6753 56.5346 62.8612 56.4334 62.9068 56.2275L71.0432 19.5434C71.3263 18.2669 70.2852 16.6603 68.9264 16.2771L58.9587 13.4659C57.9565 13.1833 57.1197 13.6793 56.9645 14.6481L54.4607 30.2763C54.4081 30.6049 54.4382 30.9678 54.5485 31.3335Z" fill="#344042" stroke="#0D404B" stroke-opacity="0.64" stroke-width="0.542811"/>
</g>
<g filter="url(#filter1_i_288_794)">
<path d="M35.2443 49.9313L40.0623 69.8757C40.1123 70.0824 40.2929 70.1365 40.499 70.0064C40.708 69.8746 40.8876 69.5886 40.9307 69.3188L44.1731 49.0565C44.2168 48.7834 44.3986 48.4939 44.6102 48.3603C44.8148 48.2312 44.9951 48.2811 45.0495 48.4818L48.9929 63.0248C49.2144 63.8415 49.9483 64.0444 50.781 63.519L58.333 58.754C59.5594 57.9803 60.4297 56.0299 60.0716 54.8577L50.1996 22.5419C49.9619 21.7636 49.2397 21.582 48.4254 22.0958L40.8354 26.8847C40.012 27.4043 39.2945 28.5085 39.0802 29.5862L35.2529 48.8293C35.1715 49.2384 35.1686 49.6177 35.2443 49.9313Z" fill="url(#paint0_linear_288_794)" stroke="#0D404B" stroke-opacity="0.64" stroke-width="0.542811"/>
<path d="M25.8951 25.1714L15.7472 22.5942C14.362 22.2424 13.3883 23.3429 13.7831 24.8139L24.7329 65.6058C25.0041 66.616 25.8534 67.4857 26.8046 67.7272L35.9305 70.0449C37.2931 70.391 38.2639 69.3304 37.9094 67.883L27.9816 27.3507C27.7289 26.3187 26.8666 25.4182 25.8951 25.1714Z" fill="url(#paint1_linear_288_794)" stroke="#0D404B" stroke-opacity="0.64" stroke-width="0.542811"/>
<path d="M54.5485 31.3335L61.9879 55.9929C62.0561 56.2188 62.2461 56.4136 62.4561 56.4728C62.6753 56.5346 62.8612 56.4334 62.9068 56.2275L71.0432 19.5434C71.3263 18.2669 70.2852 16.6603 68.9264 16.2771L58.9587 13.4659C57.9565 13.1833 57.1197 13.6793 56.9645 14.6481L54.4607 30.2763C54.4081 30.6049 54.4382 30.9678 54.5485 31.3335Z" fill="url(#paint2_linear_288_794)" stroke="#0D404B" stroke-opacity="0.64" stroke-width="0.542811"/>
</g>
<defs>
<filter id="filter0_dif_288_794" x="0.403814" y="0.0780125" width="83.975" height="83.3401" filterUnits="userSpaceOnUse" color-interpolation-filters="sRGB">
<feFlood flood-opacity="0" result="BackgroundImageFix"/>
<feColorMatrix in="SourceAlpha" type="matrix" values="0 0 0 0 0 0 0 0 0 0 0 0 0 0 0 0 0 0 127 0" result="hardAlpha"/>
<feOffset dy="2.17124"/>
<feGaussianBlur stdDeviation="1.08562"/>
<feComposite in2="hardAlpha" operator="out"/>
<feColorMatrix type="matrix" values="0 0 0 0 0 0 0 0 0 0 0 0 0 0 0 0 0 0 0.25 0"/>
<feBlend mode="normal" in2="BackgroundImageFix" result="effect1_dropShadow_288_794"/>
<feBlend mode="normal" in="SourceGraphic" in2="effect1_dropShadow_288_794" result="shape"/>
<feColorMatrix in="SourceAlpha" type="matrix" values="0 0 0 0 0 0 0 0 0 0 0 0 0 0 0 0 0 0 127 0" result="hardAlpha"/>
<feOffset dy="2.17124"/>
<feGaussianBlur stdDeviation="1.08562"/>
<feComposite in2="hardAlpha" operator="arithmetic" k2="-1" k3="1"/>
<feColorMatrix type="matrix" values="0 0 0 0 0.0389583 0 0 0 0 0.181875 0 0 0 0 0.2125 0 0 0 0.32 0"/>
<feBlend mode="normal" in2="shape" result="effect2_innerShadow_288_794"/>
<feGaussianBlur stdDeviation="6.51373" result="effect3_foregroundBlur_288_794"/>
</filter>
<filter id="filter1_i_288_794" x="13.4313" y="13.1055" width="57.9201" height="59.4564" filterUnits="userSpaceOnUse" color-interpolation-filters="sRGB">
<feFlood flood-opacity="0" result="BackgroundImageFix"/>
<feBlend mode="normal" in="SourceGraphic" in2="BackgroundImageFix" result="shape"/>
<feColorMatrix in="SourceAlpha" type="matrix" values="0 0 0 0 0 0 0 0 0 0 0 0 0 0 0 0 0 0 127 0" result="hardAlpha"/>
<feOffset dy="2.17124"/>
<feGaussianBlur stdDeviation="1.08562"/>
<feComposite in2="hardAlpha" operator="arithmetic" k2="-1" k3="1"/>
<feColorMatrix type="matrix" values="0 0 0 0 0.0389583 0 0 0 0 0.181875 0 0 0 0 0.2125 0 0 0 0.32 0"/>
<feBlend mode="normal" in2="shape" result="effect1_innerShadow_288_794"/>
</filter>
<linearGradient id="paint0_linear_288_794" x1="57.1901" y1="22.9703" x2="41.5808" y2="26.9684" gradientUnits="userSpaceOnUse">
<stop stop-color="#1F2D30" stop-opacity="0.64"/>
<stop offset="1" stop-color="#0195B9"/>
</linearGradient>
<linearGradient id="paint1_linear_288_794" x1="15.9357" y1="69.169" x2="30.6667" y2="66.3961" gradientUnits="userSpaceOnUse">
<stop stop-color="#1F2D30"/>
<stop offset="1" stop-color="#0195B9"/>
</linearGradient>
<linearGradient id="paint2_linear_288_794" x1="83.3025" y1="-10.7131" x2="57.0821" y2="-8.54783" gradientUnits="userSpaceOnUse">
<stop stop-color="#1F2D30"/>
<stop offset="1" stop-color="#0195B9"/>
</linearGradient>
</defs>
</svg>
