<svg width="209" height="71" viewBox="0 0 209 71" fill="none" xmlns="http://www.w3.org/2000/svg">
<g filter="url(#filter0_f_86_754)">
<path d="M82.458 26L79.336 16.2H80.946L82.836 22.332C82.9107 22.5373 82.976 22.78 83.032 23.06C83.088 23.34 83.1393 23.6107 83.186 23.872C83.242 24.124 83.284 24.3247 83.312 24.474L82.906 24.46C83.046 23.9653 83.1533 23.5827 83.228 23.312C83.312 23.0413 83.3773 22.836 83.424 22.696C83.4707 22.5467 83.5127 22.4207 83.55 22.318L85.314 17.894H86.672L88.38 22.318C88.4733 22.542 88.5527 22.766 88.618 22.99C88.6927 23.2047 88.758 23.424 88.814 23.648C88.87 23.8627 88.9307 24.0913 88.996 24.334L88.632 24.432C88.6787 24.18 88.7113 23.984 88.73 23.844C88.758 23.6947 88.7813 23.5733 88.8 23.48C88.8187 23.3867 88.8373 23.298 88.856 23.214C88.8747 23.1207 88.9027 23.004 88.94 22.864C88.9867 22.724 89.0473 22.5327 89.122 22.29L90.984 16.2H92.608L89.486 26H88.436L85.846 19.868L85.972 19.924L83.48 26H82.458ZM97.0278 26.14C96.2718 26.14 95.5998 25.9813 95.0118 25.664C94.4332 25.3373 93.9758 24.894 93.6398 24.334C93.3132 23.774 93.1498 23.13 93.1498 22.402C93.1498 21.8233 93.2432 21.296 93.4298 20.82C93.6165 20.344 93.8732 19.9333 94.1998 19.588C94.5358 19.2333 94.9325 18.9627 95.3898 18.776C95.8565 18.58 96.3605 18.482 96.9018 18.482C97.3778 18.482 97.8212 18.5753 98.2318 18.762C98.6425 18.9393 98.9972 19.1867 99.2958 19.504C99.6038 19.8213 99.8372 20.1993 99.9958 20.638C100.164 21.0673 100.243 21.5387 100.234 22.052L100.22 22.668H94.2138L93.8918 21.52H98.9738L98.7638 21.758V21.422C98.7358 21.114 98.6332 20.8387 98.4558 20.596C98.2785 20.3533 98.0545 20.162 97.7838 20.022C97.5132 19.882 97.2192 19.812 96.9018 19.812C96.3978 19.812 95.9732 19.91 95.6278 20.106C95.2825 20.2927 95.0212 20.5727 94.8438 20.946C94.6665 21.31 94.5778 21.7627 94.5778 22.304C94.5778 22.8173 94.6852 23.2653 94.8998 23.648C95.1145 24.0213 95.4178 24.3107 95.8098 24.516C96.2018 24.7213 96.6545 24.824 97.1678 24.824C97.5318 24.824 97.8678 24.7633 98.1758 24.642C98.4932 24.5207 98.8338 24.3013 99.1978 23.984L99.9258 25.006C99.7018 25.23 99.4265 25.426 99.0998 25.594C98.7825 25.762 98.4418 25.8973 98.0778 26C97.7232 26.0933 97.3732 26.14 97.0278 26.14ZM105.665 26.14C105.348 26.14 105.03 26.0887 104.713 25.986C104.405 25.8833 104.12 25.748 103.859 25.58C103.607 25.4027 103.392 25.2113 103.215 25.006C103.047 24.7913 102.935 24.5767 102.879 24.362L103.243 24.166V25.958H101.801V15.64H103.243V20.33L103.019 20.204C103.066 19.9893 103.168 19.784 103.327 19.588C103.486 19.3827 103.686 19.2007 103.929 19.042C104.181 18.874 104.452 18.7433 104.741 18.65C105.03 18.5473 105.324 18.496 105.623 18.496C106.286 18.496 106.874 18.6593 107.387 18.986C107.9 19.3127 108.306 19.7653 108.605 20.344C108.904 20.9133 109.053 21.5667 109.053 22.304C109.053 23.0413 108.904 23.6993 108.605 24.278C108.316 24.8567 107.914 25.314 107.401 25.65C106.888 25.9767 106.309 26.14 105.665 26.14ZM105.427 24.824C105.856 24.824 106.239 24.7167 106.575 24.502C106.911 24.278 107.177 23.9793 107.373 23.606C107.569 23.2233 107.667 22.7893 107.667 22.304C107.667 21.828 107.569 21.4033 107.373 21.03C107.186 20.6473 106.925 20.3487 106.589 20.134C106.253 19.9193 105.866 19.812 105.427 19.812C104.988 19.812 104.601 19.9193 104.265 20.134C103.929 20.3487 103.663 20.6473 103.467 21.03C103.271 21.4033 103.173 21.828 103.173 22.304C103.173 22.7893 103.271 23.2233 103.467 23.606C103.663 23.9793 103.929 24.278 104.265 24.502C104.601 24.7167 104.988 24.824 105.427 24.824ZM114.907 26V16.2H118.743C119.443 16.2 120.073 16.3167 120.633 16.55C121.202 16.7833 121.688 17.1193 122.089 17.558C122.49 17.9967 122.798 18.5147 123.013 19.112C123.228 19.7093 123.335 20.372 123.335 21.1C123.335 21.828 123.228 22.4953 123.013 23.102C122.798 23.6993 122.49 24.2173 122.089 24.656C121.697 25.0853 121.216 25.4167 120.647 25.65C120.078 25.8833 119.443 26 118.743 26H114.907ZM116.419 24.698L116.377 24.544H118.673C119.168 24.544 119.606 24.4647 119.989 24.306C120.381 24.1473 120.708 23.9233 120.969 23.634C121.24 23.3353 121.445 22.9713 121.585 22.542C121.725 22.1127 121.795 21.632 121.795 21.1C121.795 20.568 121.725 20.092 121.585 19.672C121.445 19.2427 121.24 18.8787 120.969 18.58C120.698 18.2813 120.372 18.0527 119.989 17.894C119.606 17.7353 119.168 17.656 118.673 17.656H116.335L116.419 17.53V24.698ZM128.446 26.14C127.69 26.14 127.018 25.9813 126.43 25.664C125.851 25.3373 125.394 24.894 125.058 24.334C124.731 23.774 124.568 23.13 124.568 22.402C124.568 21.8233 124.661 21.296 124.848 20.82C125.034 20.344 125.291 19.9333 125.618 19.588C125.954 19.2333 126.35 18.9627 126.808 18.776C127.274 18.58 127.778 18.482 128.32 18.482C128.796 18.482 129.239 18.5753 129.65 18.762C130.06 18.9393 130.415 19.1867 130.714 19.504C131.022 19.8213 131.255 20.1993 131.414 20.638C131.582 21.0673 131.661 21.5387 131.652 22.052L131.638 22.668H125.632L125.31 21.52H130.392L130.182 21.758V21.422C130.154 21.114 130.051 20.8387 129.874 20.596C129.696 20.3533 129.472 20.162 129.202 20.022C128.931 19.882 128.637 19.812 128.32 19.812C127.816 19.812 127.391 19.91 127.046 20.106C126.7 20.2927 126.439 20.5727 126.262 20.946C126.084 21.31 125.996 21.7627 125.996 22.304C125.996 22.8173 126.103 23.2653 126.318 23.648C126.532 24.0213 126.836 24.3107 127.228 24.516C127.62 24.7213 128.072 24.824 128.586 24.824C128.95 24.824 129.286 24.7633 129.594 24.642C129.911 24.5207 130.252 24.3013 130.616 23.984L131.344 25.006C131.12 25.23 130.844 25.426 130.518 25.594C130.2 25.762 129.86 25.8973 129.496 26C129.141 26.0933 128.791 26.14 128.446 26.14ZM135.49 26L132.382 18.65H133.936L136.176 24.152L135.91 24.278L138.304 18.65H139.788L136.526 26H135.49ZM144.333 26.14C143.577 26.14 142.905 25.9813 142.317 25.664C141.738 25.3373 141.281 24.894 140.945 24.334C140.618 23.774 140.455 23.13 140.455 22.402C140.455 21.8233 140.548 21.296 140.735 20.82C140.921 20.344 141.178 19.9333 141.505 19.588C141.841 19.2333 142.237 18.9627 142.695 18.776C143.161 18.58 143.665 18.482 144.207 18.482C144.683 18.482 145.126 18.5753 145.537 18.762C145.947 18.9393 146.302 19.1867 146.601 19.504C146.909 19.8213 147.142 20.1993 147.301 20.638C147.469 21.0673 147.548 21.5387 147.539 22.052L147.525 22.668H141.519L141.197 21.52H146.279L146.069 21.758V21.422C146.041 21.114 145.938 20.8387 145.761 20.596C145.583 20.3533 145.359 20.162 145.089 20.022C144.818 19.882 144.524 19.812 144.207 19.812C143.703 19.812 143.278 19.91 142.933 20.106C142.587 20.2927 142.326 20.5727 142.149 20.946C141.971 21.31 141.883 21.7627 141.883 22.304C141.883 22.8173 141.99 23.2653 142.205 23.648C142.419 24.0213 142.723 24.3107 143.115 24.516C143.507 24.7213 143.959 24.824 144.473 24.824C144.837 24.824 145.173 24.7633 145.481 24.642C145.798 24.5207 146.139 24.3013 146.503 23.984L147.231 25.006C147.007 25.23 146.731 25.426 146.405 25.594C146.087 25.762 145.747 25.8973 145.383 26C145.028 26.0933 144.678 26.14 144.333 26.14ZM149.47 26V16.2H150.982V24.544H155.574V26H149.47ZM160.517 26.14C159.798 26.14 159.154 25.9767 158.585 25.65C158.025 25.314 157.582 24.8613 157.255 24.292C156.928 23.7133 156.765 23.0553 156.765 22.318C156.765 21.5807 156.928 20.9273 157.255 20.358C157.582 19.7793 158.025 19.3267 158.585 19C159.154 18.664 159.798 18.496 160.517 18.496C161.226 18.496 161.861 18.664 162.421 19C162.99 19.3267 163.438 19.7793 163.765 20.358C164.092 20.9273 164.255 21.5807 164.255 22.318C164.255 23.0553 164.092 23.7133 163.765 24.292C163.438 24.8613 162.99 25.314 162.421 25.65C161.861 25.9767 161.226 26.14 160.517 26.14ZM160.517 24.824C160.956 24.824 161.348 24.7167 161.693 24.502C162.038 24.278 162.309 23.9793 162.505 23.606C162.701 23.2233 162.794 22.794 162.785 22.318C162.794 21.8327 162.701 21.4033 162.505 21.03C162.309 20.6473 162.038 20.3487 161.693 20.134C161.348 19.9193 160.956 19.812 160.517 19.812C160.078 19.812 159.682 19.924 159.327 20.148C158.982 20.3627 158.711 20.6613 158.515 21.044C158.319 21.4173 158.226 21.842 158.235 22.318C158.226 22.794 158.319 23.2233 158.515 23.606C158.711 23.9793 158.982 24.278 159.327 24.502C159.682 24.7167 160.078 24.824 160.517 24.824ZM166.19 26V16.2H170.18C170.712 16.2 171.193 16.3353 171.622 16.606C172.061 16.8673 172.411 17.2267 172.672 17.684C172.934 18.1413 173.064 18.65 173.064 19.21C173.064 19.77 172.934 20.2787 172.672 20.736C172.411 21.1933 172.061 21.562 171.622 21.842C171.193 22.1127 170.712 22.248 170.18 22.248H167.702V26H166.19ZM167.702 20.792H170.152C170.404 20.792 170.633 20.722 170.838 20.582C171.044 20.4327 171.207 20.2413 171.328 20.008C171.459 19.7653 171.524 19.4993 171.524 19.21C171.524 18.9207 171.459 18.6593 171.328 18.426C171.207 18.1927 171.044 18.006 170.838 17.866C170.633 17.726 170.404 17.656 170.152 17.656H167.702V20.792ZM174.671 26V18.65H176.127V20.218L175.861 20.386C175.936 20.1433 176.053 19.91 176.211 19.686C176.379 19.462 176.58 19.266 176.813 19.098C177.056 18.9207 177.313 18.7807 177.583 18.678C177.863 18.5753 178.148 18.524 178.437 18.524C178.857 18.524 179.226 18.594 179.543 18.734C179.861 18.874 180.122 19.084 180.327 19.364C180.533 19.644 180.682 19.994 180.775 20.414L180.551 20.358L180.649 20.12C180.752 19.9053 180.892 19.7047 181.069 19.518C181.256 19.322 181.466 19.1493 181.699 19C181.933 18.8507 182.18 18.734 182.441 18.65C182.703 18.566 182.959 18.524 183.211 18.524C183.762 18.524 184.215 18.636 184.569 18.86C184.933 19.084 185.204 19.4247 185.381 19.882C185.568 20.3393 185.661 20.9087 185.661 21.59V26H184.205V21.674C184.205 21.0487 184.084 20.5913 183.841 20.302C183.608 20.0033 183.239 19.854 182.735 19.854C182.474 19.854 182.227 19.9007 181.993 19.994C181.769 20.078 181.573 20.1993 181.405 20.358C181.237 20.5167 181.107 20.7033 181.013 20.918C180.92 21.1233 180.873 21.352 180.873 21.604V26H179.417V21.646C179.417 21.0673 179.291 20.624 179.039 20.316C178.797 20.008 178.442 19.854 177.975 19.854C177.714 19.854 177.471 19.9007 177.247 19.994C177.023 20.078 176.827 20.1993 176.659 20.358C176.491 20.5073 176.361 20.6893 176.267 20.904C176.174 21.1093 176.127 21.3333 176.127 21.576V26H174.671ZM191.022 26.14C190.266 26.14 189.594 25.9813 189.006 25.664C188.427 25.3373 187.97 24.894 187.634 24.334C187.307 23.774 187.144 23.13 187.144 22.402C187.144 21.8233 187.237 21.296 187.424 20.82C187.611 20.344 187.867 19.9333 188.194 19.588C188.53 19.2333 188.927 18.9627 189.384 18.776C189.851 18.58 190.355 18.482 190.896 18.482C191.372 18.482 191.815 18.5753 192.226 18.762C192.637 18.9393 192.991 19.1867 193.29 19.504C193.598 19.8213 193.831 20.1993 193.99 20.638C194.158 21.0673 194.237 21.5387 194.228 22.052L194.214 22.668H188.208L187.886 21.52H192.968L192.758 21.758V21.422C192.73 21.114 192.627 20.8387 192.45 20.596C192.273 20.3533 192.049 20.162 191.778 20.022C191.507 19.882 191.213 19.812 190.896 19.812C190.392 19.812 189.967 19.91 189.622 20.106C189.277 20.2927 189.015 20.5727 188.838 20.946C188.661 21.31 188.572 21.7627 188.572 22.304C188.572 22.8173 188.679 23.2653 188.894 23.648C189.109 24.0213 189.412 24.3107 189.804 24.516C190.196 24.7213 190.649 24.824 191.162 24.824C191.526 24.824 191.862 24.7633 192.17 24.642C192.487 24.5207 192.828 24.3013 193.192 23.984L193.92 25.006C193.696 25.23 193.421 25.426 193.094 25.594C192.777 25.762 192.436 25.8973 192.072 26C191.717 26.0933 191.367 26.14 191.022 26.14ZM195.795 26V18.65H197.237V20.162L196.985 20.33C197.078 20.0033 197.26 19.7047 197.531 19.434C197.802 19.154 198.124 18.93 198.497 18.762C198.87 18.5847 199.253 18.496 199.645 18.496C200.205 18.496 200.672 18.608 201.045 18.832C201.418 19.0467 201.698 19.378 201.885 19.826C202.072 20.274 202.165 20.8387 202.165 21.52V26H200.723V21.618C200.723 21.198 200.667 20.8527 200.555 20.582C200.443 20.302 200.27 20.1013 200.037 19.98C199.804 19.8493 199.514 19.7933 199.169 19.812C198.889 19.812 198.632 19.8587 198.399 19.952C198.166 20.036 197.96 20.1573 197.783 20.316C197.615 20.4747 197.48 20.6613 197.377 20.876C197.284 21.0813 197.237 21.3053 197.237 21.548V26H196.523C196.402 26 196.28 26 196.159 26C196.038 26 195.916 26 195.795 26ZM205.031 26V16.774H206.473V26H205.031ZM203.505 20.05V18.65H208.181V20.05H203.505Z" fill="url(#paint0_linear_86_754)" fill-opacity="0.8"/>
</g>
<g filter="url(#filter1_ddddd_86_754)">
<path d="M42.675 39.6506L28.35 24.4952L31.225 24.4952L40.075 33.9782C40.3917 34.2957 40.725 34.671 41.075 35.104C41.425 35.537 41.7583 35.9556 42.075 36.3597C42.4 36.7494 42.6542 37.0598 42.8375 37.2907L42.1 37.2691C41.9083 36.5041 41.7583 35.9123 41.65 35.4937C41.5583 35.0751 41.4917 34.7576 41.45 34.5411C41.4 34.3101 41.3625 34.1153 41.3375 33.9565L40.5375 27.1149L42.9625 27.1149L49.9625 33.9565C50.3292 34.3029 50.6708 34.6493 50.9875 34.9957C51.3125 35.3277 51.625 35.6669 51.925 36.0133C52.2167 36.3453 52.5292 36.6989 52.8625 37.0742L52.3 37.2258C52.1583 36.8361 52.0417 36.5329 51.95 36.3164C51.8667 36.0855 51.8 35.8979 51.75 35.7535C51.7 35.6092 51.6542 35.4721 51.6125 35.3422C51.5625 35.1978 51.5083 35.0174 51.45 34.8009C51.4083 34.5844 51.3458 34.2885 51.2625 33.9132L49.15 24.4952L52.05 24.4952L55.225 39.6506L53.35 39.6506L43.25 30.1677L43.525 30.2543L44.5 39.6506L42.675 39.6506ZM70.3426 39.6506L66.0676 32.2461C65.7009 31.611 65.1384 31.0986 64.3801 30.7089C63.6301 30.3048 62.8551 30.1027 62.0551 30.1027C61.3217 30.1027 60.7301 30.2326 60.2801 30.4924C59.8467 30.7522 59.5426 31.1492 59.3676 31.6832L56.8551 30.2326C57.2134 29.4965 57.7384 28.948 58.4301 28.5872C59.1384 28.2263 60.0176 28.0459 61.0676 28.0459C62.0676 28.0459 63.0176 28.1902 63.9176 28.4789C64.8176 28.7676 65.6301 29.1934 66.3551 29.7563C67.0717 30.3048 67.6592 30.9759 68.1176 31.7698L72.6676 39.6506L70.3426 39.6506ZM66.5426 39.8671C65.6926 39.8671 64.8509 39.7228 64.0176 39.4341C63.1842 39.1455 62.4217 38.7485 61.7301 38.2433C61.0467 37.7237 60.5051 37.1175 60.1051 36.4247C59.7551 35.8185 59.5717 35.2844 59.5551 34.8225C59.5384 34.3607 59.6842 33.9782 59.9926 33.6751C60.3176 33.3719 60.8009 33.141 61.4426 32.9822C62.1009 32.8235 62.9134 32.7441 63.8801 32.7441L67.5301 32.7441L68.3301 34.5194L64.5801 34.5194C64.0801 34.5194 63.6551 34.5627 63.3051 34.6493C62.9634 34.7215 62.7009 34.8442 62.5176 35.0174C62.3426 35.1762 62.2551 35.371 62.2551 35.602C62.2467 35.8185 62.3301 36.0783 62.5051 36.3814C62.6884 36.6989 62.9426 36.9804 63.2676 37.2258C63.5842 37.4567 63.9384 37.6371 64.3301 37.767C64.7217 37.8969 65.1259 37.9619 65.5426 37.9619C66.1426 37.9619 66.6592 37.8753 67.0926 37.7021C67.5342 37.5144 67.8717 37.2618 68.1051 36.9443C68.3551 36.6268 68.4842 36.2731 68.4926 35.8834L69.9301 37.334C69.8717 37.8392 69.6926 38.2794 69.3926 38.6547C69.0926 39.03 68.7051 39.3259 68.2301 39.5424C67.7551 39.7589 67.1926 39.8671 66.5426 39.8671ZM75.9721 39.6506L66.7221 23.6292L69.2971 23.6292L78.5471 39.6506L75.9721 39.6506ZM82.2465 39.6506L72.9965 23.6292L75.5715 23.6292L84.8215 39.6506L82.2465 39.6506ZM96.0018 39.6506L91.7268 32.2461C91.3601 31.611 90.7976 31.0986 90.0393 30.7089C89.2893 30.3048 88.5143 30.1027 87.7143 30.1027C86.9809 30.1027 86.3893 30.2326 85.9393 30.4924C85.5059 30.7522 85.2018 31.1492 85.0268 31.6832L82.5143 30.2326C82.8726 29.4965 83.3976 28.948 84.0893 28.5872C84.7976 28.2263 85.6768 28.0459 86.7268 28.0459C87.7268 28.0459 88.6768 28.1902 89.5768 28.4789C90.4768 28.7676 91.2893 29.1934 92.0143 29.7563C92.7309 30.3048 93.3184 30.9759 93.7768 31.7698L98.3268 39.6506L96.0018 39.6506ZM92.2018 39.8671C91.3518 39.8671 90.5101 39.7228 89.6768 39.4341C88.8434 39.1455 88.0809 38.7485 87.3893 38.2433C86.7059 37.7237 86.1643 37.1175 85.7643 36.4247C85.4143 35.8185 85.2309 35.2844 85.2143 34.8225C85.1976 34.3607 85.3434 33.9782 85.6518 33.6751C85.9768 33.3719 86.4601 33.141 87.1018 32.9822C87.7601 32.8235 88.5726 32.7441 89.5393 32.7441L93.1893 32.7441L93.9893 34.5194L90.2393 34.5194C89.7393 34.5194 89.3143 34.5627 88.9643 34.6493C88.6226 34.7215 88.3601 34.8442 88.1768 35.0174C88.0018 35.1762 87.9143 35.371 87.9143 35.602C87.9059 35.8185 87.9893 36.0783 88.1643 36.3814C88.3476 36.6989 88.6018 36.9804 88.9268 37.2258C89.2434 37.4567 89.5976 37.6371 89.9893 37.767C90.3809 37.8969 90.7851 37.9619 91.2018 37.9619C91.8018 37.9619 92.3184 37.8753 92.7518 37.7021C93.1934 37.5144 93.5309 37.2618 93.7643 36.9443C94.0143 36.6268 94.1434 36.2731 94.1518 35.8834L95.5893 37.334C95.5309 37.8392 95.3518 38.2794 95.0518 38.6547C94.7518 39.03 94.3643 39.3259 93.8893 39.5424C93.4143 39.7589 92.8518 39.8671 92.2018 39.8671ZM107.281 39.8671C106.065 39.8671 104.823 39.6073 103.556 39.0877C102.306 38.5681 101.14 37.8608 100.056 36.966C98.9896 36.0711 98.1354 35.0679 97.4937 33.9565C96.8521 32.8451 96.5479 31.842 96.5813 30.9471C96.6313 30.0522 96.9813 29.3449 97.6313 28.8253C98.2979 28.3057 99.2396 28.0459 100.456 28.0459C101.623 28.0459 102.802 28.2552 103.994 28.6738C105.194 29.0779 106.248 29.6336 107.156 30.3409L106.606 31.8564C106.148 31.5244 105.631 31.2213 105.056 30.9471C104.481 30.6728 103.915 30.4563 103.356 30.2976C102.798 30.1388 102.302 30.0594 101.869 30.0594C101.069 30.0594 100.452 30.2326 100.019 30.579C99.5937 30.911 99.3687 31.3729 99.3438 31.9647C99.3188 32.5564 99.5188 33.2204 99.9438 33.9565C100.369 34.6926 100.944 35.3566 101.669 35.9484C102.385 36.5257 103.16 36.9876 103.994 37.334C104.827 37.6804 105.627 37.8536 106.394 37.8536C106.844 37.8536 107.24 37.7887 107.581 37.6588C107.94 37.5289 108.244 37.334 108.494 37.0742C108.744 36.8144 108.935 36.4969 109.069 36.1216L111.369 37.6371C111.21 38.2866 110.752 38.8207 109.994 39.2393C109.252 39.6579 108.348 39.8671 107.281 39.8671ZM121.21 39.8671C119.86 39.8671 118.518 39.6218 117.185 39.131C115.86 38.6258 114.648 37.9402 113.548 37.0742C112.464 36.2082 111.598 35.2123 110.948 34.0864C110.431 33.1915 110.127 32.376 110.035 31.6399C109.943 30.9038 110.035 30.2687 110.31 29.7346C110.593 29.1862 111.06 28.7676 111.71 28.4789C112.368 28.1758 113.181 28.0242 114.148 28.0242C114.998 28.0242 115.873 28.1686 116.773 28.4573C117.664 28.7315 118.518 29.114 119.335 29.6047C120.168 30.0955 120.923 30.6801 121.598 31.3584C122.281 32.0224 122.843 32.7513 123.285 33.5452L123.81 34.4978L113.085 34.4978L111.485 32.7224L120.56 32.7224L120.398 33.0905L120.098 32.5709C119.773 32.0946 119.343 31.6688 118.81 31.2935C118.277 30.9182 117.706 30.6223 117.098 30.4058C116.489 30.1893 115.902 30.0811 115.335 30.0811C114.435 30.0811 113.764 30.2326 113.323 30.5357C112.873 30.8244 112.656 31.2574 112.673 31.8348C112.681 32.3977 112.927 33.0977 113.41 33.9349C113.868 34.7287 114.46 35.4215 115.185 36.0133C115.902 36.5907 116.702 37.0381 117.585 37.3557C118.468 37.6732 119.368 37.832 120.285 37.832C120.935 37.832 121.481 37.7382 121.923 37.5505C122.381 37.3629 122.793 37.0237 123.16 36.5329L125.373 38.1134C125.173 38.4598 124.856 38.763 124.423 39.0228C124.006 39.2826 123.518 39.4919 122.96 39.6506C122.41 39.795 121.827 39.8671 121.21 39.8671Z" fill="#FCF6F8"/>
<path d="M42.675 39.6506L41.874 39.9135L42.4441 40.5167L43.175 40.5167L42.675 39.6506ZM28.35 24.4952L27.85 23.6292L26.4819 23.6292L27.549 24.7581L28.35 24.4952ZM31.225 24.4952L32.0334 24.2401L31.4632 23.6292L30.725 23.6292L31.225 24.4952ZM40.075 33.9782L39.2666 34.2333L39.2859 34.2539L39.3061 34.2741L40.075 33.9782ZM41.075 35.104L41.9575 34.9342L41.9575 34.9342L41.075 35.104ZM42.075 36.3597L41.1785 36.512L41.1925 36.5299L41.2073 36.5476L42.075 36.3597ZM42.8375 37.2907L43.3027 38.1562L44.5716 38.1935L43.7282 37.1311L42.8375 37.2907ZM42.1 37.2691L41.0016 37.0332L41.268 38.0965L42.5652 38.1346L42.1 37.2691ZM41.65 35.4937L40.5467 35.237L40.5496 35.2502L40.553 35.2634L41.65 35.4937ZM41.45 34.5411L42.5568 34.8149L42.5553 34.8072L42.5536 34.7994L41.45 34.5411ZM41.3375 33.9565L40.2234 33.6358L40.2249 33.6481L40.2268 33.6606L41.3375 33.9565ZM40.5375 27.1149L40.0375 26.2489L39.3597 26.2489L39.4234 26.7942L40.5375 27.1149ZM42.9625 27.1149L43.7153 26.803L43.1484 26.2489L42.4625 26.2489L42.9625 27.1149ZM49.9625 33.9565L49.2097 34.2684L49.2206 34.2791L49.2317 34.2896L49.9625 33.9565ZM50.9875 34.9957L50.1675 35.2382L50.1869 35.2594L50.2073 35.2803L50.9875 34.9957ZM51.925 36.0133L51.0761 36.2234L51.0836 36.2319L51.925 36.0133ZM52.8625 37.0742L53.6053 37.9105L54.4409 37.6853L53.6981 36.8491L52.8625 37.0742ZM52.3 37.2258L51.2257 37.0681L51.7169 38.4193L53.0428 38.062L52.3 37.2258ZM51.95 36.3164L50.875 36.1568L50.8831 36.1793L50.8927 36.202L51.95 36.3164ZM51.75 35.7535L52.8286 35.9234L52.8286 35.9234L51.75 35.7535ZM51.6125 35.3422L52.6972 35.53L52.6943 35.521L52.6911 35.512L51.6125 35.3422ZM51.45 34.8009L50.3432 34.527L50.348 34.5522L50.3549 34.5777L51.45 34.8009ZM51.2625 33.9132L52.3653 34.1679L52.365 34.1664L51.2625 33.9132ZM49.15 24.4952L48.65 23.6292L47.9101 23.6292L48.0475 24.242L49.15 24.4952ZM52.05 24.4952L53.1546 24.7581L52.9181 23.6292L51.55 23.6292L52.05 24.4952ZM55.225 39.6506L55.725 40.5167L56.4559 40.5167L56.3296 39.9135L55.225 39.6506ZM53.35 39.6506L52.6233 39.9876L53.1868 40.5167L53.85 40.5167L53.35 39.6506ZM43.25 30.1677L43.1992 29.3763L40.374 28.4865L42.5233 30.5046L43.25 30.1677ZM43.525 30.2543L44.6399 30.5829L44.5592 29.8045L43.4742 29.4629L43.525 30.2543ZM44.5 39.6506L45 40.5167L45.6707 40.5167L45.6149 39.9793L44.5 39.6506ZM43.476 39.3878L29.151 24.2323L27.549 24.7581L41.874 39.9135L43.476 39.3878ZM28.85 25.3612L31.725 25.3612L30.725 23.6292L27.85 23.6292L28.85 25.3612ZM30.4166 24.7503L39.2666 34.2333L40.8834 33.7231L32.0334 24.2401L30.4166 24.7503ZM39.3061 34.2741C39.5716 34.5403 39.8673 34.8715 40.1925 35.2738L41.9575 34.9342C41.5827 34.4705 41.2118 34.0511 40.8439 33.6822L39.3061 34.2741ZM40.1925 35.2738C40.5381 35.7014 40.8667 36.1141 41.1785 36.512L42.9715 36.2075C42.6499 35.7971 42.3119 35.3726 41.9575 34.9342L40.1925 35.2738ZM41.2073 36.5476C41.529 36.9334 41.7743 37.2331 41.9468 37.4503L43.7282 37.1311C43.534 36.8865 43.271 36.5655 42.9427 36.1719L41.2073 36.5476ZM42.3723 36.4252L41.6348 36.4036L42.5652 38.1346L43.3027 38.1562L42.3723 36.4252ZM43.1984 37.5049C43.0065 36.7393 42.856 36.1454 42.747 35.724L40.553 35.2634C40.6607 35.6792 40.8101 36.2688 41.0016 37.0332L43.1984 37.5049ZM42.7533 35.7504C42.6619 35.3334 42.5968 35.0227 42.5568 34.8149L40.3432 34.2672C40.3866 34.4925 40.4547 34.8169 40.5467 35.237L42.7533 35.7504ZM42.5536 34.7994C42.5053 34.5762 42.4706 34.3948 42.4482 34.2525L40.2268 33.6606C40.2544 33.8358 40.2947 34.0441 40.3464 34.2828L42.5536 34.7994ZM42.4516 34.2773L41.6516 27.4357L39.4234 26.7942L40.2234 33.6358L42.4516 34.2773ZM41.0375 27.9809L43.4625 27.9809L42.4625 26.2489L40.0375 26.2489L41.0375 27.9809ZM42.2097 27.4268L49.2097 34.2684L50.7153 33.6446L43.7153 26.803L42.2097 27.4268ZM49.2317 34.2896C49.5683 34.6076 49.8801 34.9238 50.1675 35.2382L51.8075 34.7533C51.4616 34.3749 51.09 33.9983 50.6933 33.6234L49.2317 34.2896ZM50.2073 35.2803C50.5079 35.5874 50.7976 35.9017 51.0761 36.2234L52.7739 35.8033C52.4524 35.4321 52.1171 35.0681 51.7677 34.7112L50.2073 35.2803ZM51.0836 36.2319C51.3774 36.5664 51.6919 36.9222 52.0269 37.2994L53.6981 36.8491C53.3665 36.4757 53.0559 36.1243 52.7664 35.7947L51.0836 36.2319ZM52.1197 36.238L51.5572 36.3895L53.0428 38.062L53.6053 37.9105L52.1197 36.238ZM53.3743 37.3835C53.2309 36.9889 53.1081 36.669 53.0073 36.4309L50.8927 36.202C50.9752 36.3969 51.0858 36.6832 51.2257 37.0681L53.3743 37.3835ZM53.025 36.476C52.9423 36.2468 52.877 36.0629 52.8286 35.9234L50.6714 35.5837C50.723 35.7328 50.791 35.9242 50.875 36.1568L53.025 36.476ZM52.8286 35.9234C52.7805 35.7844 52.7367 35.6533 52.6972 35.53L50.5278 35.1543C50.5716 35.2908 50.6195 35.4339 50.6714 35.5837L52.8286 35.9234ZM52.6911 35.512C52.6496 35.3922 52.6008 35.231 52.5451 35.024L50.3549 34.5777C50.4158 34.8038 50.4754 35.0034 50.5339 35.1723L52.6911 35.512ZM52.5568 35.0748C52.5133 34.849 52.4492 34.5457 52.3653 34.1679L50.1597 33.6585C50.2424 34.0312 50.3033 34.3198 50.3432 34.527L52.5568 35.0748ZM52.365 34.1664L50.2525 24.7484L48.0475 24.242L50.16 33.66L52.365 34.1664ZM49.65 25.3612L52.55 25.3612L51.55 23.6292L48.65 23.6292L49.65 25.3612ZM50.9454 24.2323L54.1204 39.3878L56.3296 39.9135L53.1546 24.7581L50.9454 24.2323ZM54.725 38.7846L52.85 38.7846L53.85 40.5167L55.725 40.5167L54.725 38.7846ZM54.0767 39.3137L43.9767 29.8307L42.5233 30.5046L52.6233 39.9876L54.0767 39.3137ZM43.3008 30.959L43.5758 31.0456L43.4742 29.4629L43.1992 29.3763L43.3008 30.959ZM42.4101 29.9256L43.3851 39.322L45.6149 39.9793L44.6399 30.5829L42.4101 29.9256ZM44 38.7846L42.175 38.7846L43.175 40.5167L45 40.5167L44 38.7846ZM70.3426 39.6506L69.3426 39.6506L69.8426 40.5167L70.8426 40.5167L70.3426 39.6506ZM64.3801 30.7089L64.0808 31.3516L64.099 31.3614L64.1174 31.3708L64.3801 30.7089ZM60.2801 30.4924L59.3856 29.7178L59.3781 29.7223L60.2801 30.4924ZM59.3676 31.6832L59.014 32.2956L60.211 32.9867L60.4631 32.2174L59.3676 31.6832ZM56.8551 30.2326L55.7809 29.6457L55.4833 30.2571L56.5015 30.845L56.8551 30.2326ZM58.4301 28.5872L57.5611 27.7987L57.5562 27.8013L58.4301 28.5872ZM63.9176 28.4789L63.8762 27.6905L63.8762 27.6905L63.9176 28.4789ZM66.3551 29.7563L65.7654 30.2102L65.7766 30.2187L66.3551 29.7563ZM72.6676 39.6506L73.1676 40.5167L74.1676 40.5167L73.6676 39.6506L72.6676 39.6506ZM64.0176 39.4341L64.0176 40.2087L64.0176 40.2087L64.0176 39.4341ZM61.7301 38.2433L61.1566 38.7096L61.1722 38.7215L61.1881 38.7331L61.7301 38.2433ZM59.5551 34.8225L60.6728 35.1901L60.6728 35.1901L59.5551 34.8225ZM59.9926 33.6751L59.0095 32.9656L59.0052 32.9696L59.0011 32.9736L59.9926 33.6751ZM61.4426 32.9822L60.7194 32.141L60.715 32.1421L61.4426 32.9822ZM67.5301 32.7441L68.5787 32.8386L68.1458 31.8781L67.0301 31.8781L67.5301 32.7441ZM68.3301 34.5194L68.8301 35.3855L69.7263 35.3855L69.3787 34.6139L68.3301 34.5194ZM63.3051 34.6493L64.0061 35.4956L64.0196 35.4928L64.0327 35.4895L63.3051 34.6493ZM62.5176 35.0174L63.4962 35.7311L63.5027 35.7249L62.5176 35.0174ZM62.2551 35.602L63.3727 36.0095L63.3731 35.9995V35.9893L62.2551 35.602ZM63.2676 37.2258L62.6996 37.6962L62.7131 37.7064L62.7268 37.7164L63.2676 37.2258ZM64.3301 37.767L64.3063 36.9844L64.3301 37.767ZM67.0926 37.7021L67.9119 38.513L67.9181 38.5105L67.9243 38.5078L67.0926 37.7021ZM68.1051 36.9443L67.0774 36.2832L67.0732 36.2886L67.0691 36.2942L68.1051 36.9443ZM68.4926 35.8834L69.2654 35.5914L67.4124 33.7215L67.3747 35.4848L68.4926 35.8834ZM69.9301 37.334L71.0448 37.7796L71.0854 37.428L70.7029 37.042L69.9301 37.334ZM69.3926 38.6547L70.4183 39.3182L70.4183 39.3182L69.3926 38.6547ZM68.2301 39.5424L69.0762 40.3418L69.0762 40.3418L68.2301 39.5424ZM71.3426 39.6506L67.0676 32.2461L65.0676 32.2461L69.3426 39.6506L71.3426 39.6506ZM67.0676 32.2461C66.5622 31.3707 65.7395 30.6106 64.6428 30.047L64.1174 31.3708C64.5373 31.5866 64.8397 31.8513 65.0676 32.2461L67.0676 32.2461ZM64.6793 30.0662C63.6229 29.497 62.5633 29.2367 61.5551 29.2367L62.5551 30.9687C63.1469 30.9687 63.6373 31.1126 64.0808 31.3516L64.6793 30.0662ZM61.5551 29.2367C60.6812 29.2367 59.9492 29.3924 59.3857 29.7178L61.1745 31.267C61.5109 31.0728 61.9623 30.9687 62.5551 30.9687L61.5551 29.2367ZM59.3781 29.7223C58.8328 30.0492 58.4731 30.5355 58.2721 31.149L60.4631 32.2174C60.612 31.7629 60.8607 31.4552 61.1821 31.2626L59.3781 29.7223ZM59.7211 31.0708L57.2086 29.6202L56.5015 30.845L59.014 32.2956L59.7211 31.0708ZM57.9293 30.8195C58.2536 30.1533 58.7177 29.6789 59.3039 29.373L57.5562 27.8013C56.7591 28.2171 56.1733 28.8396 55.7809 29.6457L57.9293 30.8195ZM59.2991 29.3756C59.9027 29.0681 60.6541 28.9119 61.5676 28.9119L60.5676 27.1799C59.3811 27.1799 58.3742 27.3846 57.5611 27.7988L59.2991 29.3756ZM61.5676 28.9119C62.4584 28.9119 63.2521 29.0406 63.959 29.2673L63.8762 27.6905C62.7831 27.3399 61.6768 27.1799 60.5676 27.1799L61.5676 28.9119ZM63.959 29.2673C64.6497 29.4889 65.2402 29.8024 65.7655 30.2102L66.9447 29.3024C66.0199 28.5844 64.9855 28.0463 63.8762 27.6905L63.959 29.2673ZM65.7766 30.2187C66.2757 30.6007 66.7325 31.1029 67.1176 31.7698L69.1176 31.7698C68.5859 30.849 67.8678 30.0088 66.9336 29.2938L65.7766 30.2187ZM67.1176 31.7698L71.6676 39.6506L73.6676 39.6506L69.1176 31.7698L67.1176 31.7698ZM72.1676 38.7846L69.8426 38.7846L70.8426 40.5167L73.1676 40.5167L72.1676 38.7846ZM66.0426 39.0011C65.3259 39.0011 64.6544 38.8801 64.0176 38.6595L64.0176 40.2087C65.0474 40.5655 66.0592 40.7332 67.0426 40.7332L66.0426 39.0011ZM64.0176 38.6595C63.3633 38.4329 62.7889 38.1311 62.272 37.7536L61.1881 38.7331C62.0546 39.366 63.0052 39.858 64.0176 40.2087L64.0176 38.6595ZM62.3036 37.7771C61.8254 37.4134 61.4218 36.9733 61.1051 36.4247L59.1051 36.4247C59.5883 37.2617 60.2681 38.034 61.1566 38.7096L62.3036 37.7771ZM61.1051 36.4247C60.8148 35.9219 60.6846 35.5173 60.6728 35.1901L58.4374 34.455C58.4589 35.0515 58.6954 35.7151 59.1051 36.4247L61.1051 36.4247ZM60.6728 35.1901C60.6609 34.8629 60.7621 34.5947 60.9841 34.3765L59.0011 32.9736C58.6064 33.3616 58.4159 33.8584 58.4374 34.455L60.6728 35.1901ZM60.9757 34.3845C61.2221 34.1547 61.6084 33.9614 62.1702 33.8224L60.715 32.1421C59.9934 32.3206 59.4131 32.5892 59.0095 32.9656L60.9757 34.3845ZM62.1657 33.8235C62.7413 33.6847 63.4743 33.6101 64.3801 33.6101L63.3801 31.8781C62.3525 31.8781 61.4606 31.9622 60.7194 32.141L62.1657 33.8235ZM64.3801 33.6101L68.0301 33.6101L67.0301 31.8781L63.3801 31.8781L64.3801 33.6101ZM66.4815 32.6496L67.2815 34.4249L69.3787 34.6139L68.5787 32.8386L66.4815 32.6496ZM67.8301 33.6534L64.0801 33.6534L65.0801 35.3855L68.8301 35.3855L67.8301 33.6534ZM64.0801 33.6534C63.515 33.6534 63.0097 33.7022 62.5775 33.8092L64.0327 35.4895C64.3004 35.4233 64.6452 35.3855 65.0801 35.3855L64.0801 33.6534ZM62.6041 33.8031C62.161 33.8967 61.7953 34.0615 61.5324 34.3099L63.5027 35.7249C63.6065 35.6268 63.7659 35.5463 64.0061 35.4956L62.6041 33.8031ZM61.539 34.3038C61.2806 34.5383 61.137 34.8416 61.137 35.2147L63.3731 35.9893C63.3731 35.9004 63.4046 35.8141 63.4961 35.731L61.539 34.3038ZM61.1374 35.1944C61.1233 35.5625 61.267 35.9691 61.5051 36.3814L63.5051 36.3814C63.3931 36.1875 63.3702 36.0744 63.3727 36.0095L61.1374 35.1944ZM61.5051 36.3814C61.7761 36.8508 62.1729 37.2986 62.6996 37.6962L63.8355 36.7553C63.7122 36.6622 63.6007 36.547 63.5051 36.3814L61.5051 36.3814ZM62.7268 37.7164C63.2303 38.0836 63.7819 38.36 64.3539 38.5497L64.3063 36.9844C64.095 36.9143 63.9382 36.8299 63.8084 36.7351L62.7268 37.7164ZM64.3539 38.5497C64.9394 38.7439 65.5055 38.8279 66.0426 38.8279L65.0426 37.0959C64.7463 37.0959 64.5041 37.05 64.3063 36.9844L64.3539 38.5497ZM66.0426 38.8279C66.756 38.8279 67.3825 38.7245 67.9119 38.513L66.2733 36.8912C65.936 37.026 65.5291 37.0959 65.0426 37.0959L66.0426 38.8279ZM67.9243 38.5078C68.4468 38.2859 68.856 37.9824 69.1411 37.5944L67.0691 36.2942C66.8875 36.5413 66.6217 36.743 66.2608 36.8963L67.9243 38.5078ZM69.1327 37.6054C69.4333 37.2236 69.5998 36.7834 69.6105 36.2821L67.3747 35.4848C67.3687 35.7628 67.2769 36.0299 67.0774 36.2832L69.1327 37.6054ZM67.7198 36.1755L69.1573 37.6261L70.7029 37.042L69.2654 35.5914L67.7198 36.1755ZM68.8153 36.8885C68.7664 37.3119 68.617 37.6783 68.3669 37.9912L70.4183 39.3182C70.7681 38.8806 70.977 38.3665 71.0448 37.7796L68.8153 36.8885ZM68.3669 37.9912C68.1102 38.3122 67.7822 38.5614 67.3839 38.743L69.0762 40.3418C69.6279 40.0903 70.0749 39.7477 70.4183 39.3182L68.3669 37.9912ZM67.3839 38.743C67.0054 38.9155 66.5606 39.0011 66.0426 39.0011L67.0426 40.7332C67.8246 40.7332 68.5048 40.6023 69.0762 40.3418L67.3839 38.743ZM75.9721 39.6506L74.9721 39.6506L75.4721 40.5167L76.4721 40.5167L75.9721 39.6506ZM66.7221 23.6292L66.2221 22.7631L65.2221 22.7631L65.7221 23.6292L66.7221 23.6292ZM69.2971 23.6292L70.2971 23.6292L69.7971 22.7631L68.7971 22.7631L69.2971 23.6292ZM78.5471 39.6506L79.0471 40.5167L80.0471 40.5167L79.5471 39.6506L78.5471 39.6506ZM76.9721 39.6506L67.7221 23.6292L65.7221 23.6292L74.9721 39.6506L76.9721 39.6506ZM67.2221 24.4952L69.7971 24.4952L68.7971 22.7631L66.2221 22.7631L67.2221 24.4952ZM68.2971 23.6292L77.5471 39.6506L79.5471 39.6506L70.2971 23.6292L68.2971 23.6292ZM78.0471 38.7846L75.4721 38.7846L76.4721 40.5167L79.0471 40.5167L78.0471 38.7846ZM82.2465 39.6506L81.2465 39.6506L81.7465 40.5167L82.7465 40.5167L82.2465 39.6506ZM72.9965 23.6292L72.4965 22.7631L71.4965 22.7631L71.9965 23.6292L72.9965 23.6292ZM75.5715 23.6292L76.5715 23.6292L76.0715 22.7631L75.0715 22.7631L75.5715 23.6292ZM84.8215 39.6506L85.3215 40.5167L86.3215 40.5167L85.8215 39.6506L84.8215 39.6506ZM83.2465 39.6506L73.9965 23.6292L71.9965 23.6292L81.2465 39.6506L83.2465 39.6506ZM73.4965 24.4952L76.0715 24.4952L75.0715 22.7631L72.4965 22.7631L73.4965 24.4952ZM74.5715 23.6292L83.8215 39.6506L85.8215 39.6506L76.5715 23.6292L74.5715 23.6292ZM84.3215 38.7846L81.7465 38.7846L82.7465 40.5167L85.3215 40.5167L84.3215 38.7846ZM96.0018 39.6506L95.0018 39.6506L95.5018 40.5167L96.5018 40.5167L96.0018 39.6506ZM90.0393 30.7089L89.74 31.3516L89.7582 31.3614L89.7765 31.3708L90.0393 30.7089ZM85.9393 30.4924L85.0448 29.7178L85.0373 29.7223L85.9393 30.4924ZM85.0268 31.6832L84.6732 32.2956L85.8702 32.9867L86.1223 32.2174L85.0268 31.6832ZM82.5143 30.2326L81.4401 29.6457L81.1425 30.2571L82.1607 30.845L82.5143 30.2326ZM84.0893 28.5872L83.2203 27.7987L83.2154 27.8013L84.0893 28.5872ZM89.5768 28.4789L89.5354 27.6905L89.5354 27.6905L89.5768 28.4789ZM92.0143 29.7563L91.4246 30.2102L91.4358 30.2187L92.0143 29.7563ZM98.3268 39.6506L98.8268 40.5167L99.8268 40.5167L99.3268 39.6506L98.3268 39.6506ZM89.6768 39.4341L89.6768 40.2087L89.6768 40.2087L89.6768 39.4341ZM87.3893 38.2433L86.8158 38.7096L86.8314 38.7215L86.8473 38.7331L87.3893 38.2433ZM85.2143 34.8225L86.3319 35.1901L86.3319 35.1901L85.2143 34.8225ZM85.6518 33.6751L84.6687 32.9656L84.6644 32.9696L84.6603 32.9736L85.6518 33.6751ZM87.1018 32.9822L86.3786 32.141L86.3742 32.1421L87.1018 32.9822ZM93.1893 32.7441L94.2378 32.8386L93.805 31.8781L92.6893 31.8781L93.1893 32.7441ZM93.9893 34.5194L94.4893 35.3855L95.3855 35.3855L95.0378 34.6139L93.9893 34.5194ZM88.9643 34.6493L89.6653 35.4956L89.6787 35.4928L89.6919 35.4895L88.9643 34.6493ZM88.1768 35.0174L89.1554 35.7311L89.1619 35.7249L88.1768 35.0174ZM87.9143 35.602L89.0319 36.0095L89.0323 35.9995L89.0323 35.9893L87.9143 35.602ZM88.9268 37.2258L88.3588 37.6962L88.3723 37.7064L88.386 37.7164L88.9268 37.2258ZM89.9893 37.767L89.9655 36.9844L89.9893 37.767ZM92.7518 37.7021L93.571 38.513L93.5773 38.5105L93.5835 38.5078L92.7518 37.7021ZM93.7643 36.9443L92.7366 36.2832L92.7324 36.2886L92.7283 36.2942L93.7643 36.9443ZM94.1518 35.8834L94.9246 35.5914L93.0715 33.7215L93.0338 35.4848L94.1518 35.8834ZM95.5893 37.334L96.704 37.7796L96.7446 37.428L96.3621 37.042L95.5893 37.334ZM95.0518 38.6547L96.0775 39.3182L96.0775 39.3182L95.0518 38.6547ZM93.8893 39.5424L94.7354 40.3418L94.7354 40.3418L93.8893 39.5424ZM97.0018 39.6506L92.7268 32.2461L90.7268 32.2461L95.0018 39.6506L97.0018 39.6506ZM92.7268 32.2461C92.2214 31.3707 91.3987 30.6106 90.302 30.047L89.7765 31.3708C90.1965 31.5866 90.4988 31.8513 90.7268 32.2461L92.7268 32.2461ZM90.3385 30.0662C89.2821 29.497 88.2225 29.2367 87.2143 29.2367L88.2143 30.9687C88.806 30.9687 89.2964 31.1126 89.74 31.3516L90.3385 30.0662ZM87.2143 29.2367C86.3404 29.2367 85.6084 29.3924 85.0448 29.7178L86.8337 31.267C87.1701 31.0728 87.6215 30.9687 88.2143 30.9687L87.2143 29.2367ZM85.0373 29.7223C84.4919 30.0492 84.1323 30.5355 83.9313 31.149L86.1223 32.2174C86.2712 31.7629 86.5199 31.4552 86.8412 31.2626L85.0373 29.7223ZM85.3803 31.0708L82.8678 29.6202L82.1607 30.845L84.6732 32.2956L85.3803 31.0708ZM83.5885 30.8195C83.9127 30.1533 84.3769 29.6789 84.9631 29.373L83.2154 27.8013C82.4183 28.2171 81.8324 28.8396 81.4401 29.6457L83.5885 30.8195ZM84.9582 29.3756C85.5618 29.0681 86.3133 28.9119 87.2268 28.9119L86.2268 27.1799C85.0403 27.1799 84.0333 27.3846 83.2203 27.7988L84.9582 29.3756ZM87.2268 28.9119C88.1175 28.9119 88.9113 29.0406 89.6181 29.2673L89.5354 27.6905C88.4422 27.3399 87.336 27.1799 86.2268 27.1799L87.2268 28.9119ZM89.6181 29.2673C90.3088 29.4889 90.8994 29.8024 91.4246 30.2102L92.6039 29.3024C91.6791 28.5844 90.6447 28.0463 89.5354 27.6905L89.6181 29.2673ZM91.4358 30.2187C91.9349 30.6007 92.3917 31.1029 92.7768 31.7698L94.7768 31.7698C94.2451 30.849 93.527 30.0088 92.5928 29.2938L91.4358 30.2187ZM92.7768 31.7698L97.3268 39.6506L99.3268 39.6506L94.7768 31.7698L92.7768 31.7698ZM97.8268 38.7846L95.5018 38.7846L96.5018 40.5167L98.8268 40.5167L97.8268 38.7846ZM91.7018 39.0011C90.9851 39.0011 90.3136 38.8801 89.6768 38.6595L89.6768 40.2087C90.7066 40.5655 91.7184 40.7332 92.7018 40.7332L91.7018 39.0011ZM89.6768 38.6595C89.0225 38.4329 88.448 38.1311 87.9312 37.7536L86.8473 38.7331C87.7138 39.366 88.6644 39.858 89.6768 40.2087L89.6768 38.6595ZM87.9628 37.7771C87.4845 37.4134 87.081 36.9733 86.7643 36.4247L84.7643 36.4247C85.2475 37.2617 85.9273 38.034 86.8158 38.7096L87.9628 37.7771ZM86.7643 36.4247C86.4739 35.9219 86.3437 35.5173 86.3319 35.1901L84.0966 34.455C84.1181 35.0515 84.3546 35.7151 84.7643 36.4247L86.7643 36.4247ZM86.3319 35.1901C86.3201 34.8629 86.4213 34.5947 86.6432 34.3765L84.6603 32.9736C84.2656 33.3616 84.0751 33.8584 84.0966 34.455L86.3319 35.1901ZM86.6348 34.3845C86.8813 34.1547 87.2676 33.9614 87.8294 33.8224L86.3742 32.1421C85.6526 32.3206 85.0722 32.5892 84.6687 32.9656L86.6348 34.3845ZM87.8249 33.8235C88.4005 33.6847 89.1335 33.6101 90.0393 33.6101L89.0393 31.8781C88.0117 31.8781 87.1197 31.9622 86.3786 32.141L87.8249 33.8235ZM90.0393 33.6101L93.6893 33.6101L92.6893 31.8781L89.0393 31.8781L90.0393 33.6101ZM92.1407 32.6496L92.9407 34.4249L95.0378 34.6139L94.2378 32.8386L92.1407 32.6496ZM93.4893 33.6534L89.7393 33.6534L90.7393 35.3855L94.4893 35.3855L93.4893 33.6534ZM89.7393 33.6534C89.1742 33.6534 88.6689 33.7022 88.2367 33.8092L89.6919 35.4895C89.9596 35.4233 90.3044 35.3855 90.7393 35.3855L89.7393 33.6534ZM88.2632 33.8031C87.8201 33.8967 87.4545 34.0615 87.1916 34.3099L89.1619 35.7249C89.2657 35.6268 89.425 35.5463 89.6653 35.4956L88.2632 33.8031ZM87.1982 34.3038C86.9397 34.5383 86.7962 34.8416 86.7962 35.2147L89.0323 35.9893C89.0323 35.9004 89.0638 35.8141 89.1553 35.731L87.1982 34.3038ZM86.7966 35.1944C86.7824 35.5625 86.9262 35.9691 87.1643 36.3814L89.1643 36.3814C89.0523 36.1875 89.0294 36.0744 89.0319 36.0095L86.7966 35.1944ZM87.1643 36.3814C87.4353 36.8508 87.8321 37.2986 88.3588 37.6962L89.4947 36.7553C89.3714 36.6622 89.2599 36.547 89.1643 36.3814L87.1643 36.3814ZM88.386 37.7164C88.8894 38.0836 89.441 38.36 90.013 38.5497L89.9655 36.9844C89.7541 36.9143 89.5974 36.8299 89.4675 36.7351L88.386 37.7164ZM90.013 38.5497C90.5986 38.7439 91.1647 38.8279 91.7018 38.8279L90.7018 37.0959C90.4055 37.0959 90.1633 37.05 89.9655 36.9844L90.013 38.5497ZM91.7018 38.8279C92.4152 38.8279 93.0417 38.7245 93.571 38.513L91.9325 36.8912C91.5952 37.026 91.1883 37.0959 90.7018 37.0959L91.7018 38.8279ZM93.5835 38.5078C94.106 38.2859 94.5152 37.9824 94.8002 37.5944L92.7283 36.2942C92.5467 36.5413 92.2809 36.743 91.92 36.8963L93.5835 38.5078ZM94.7919 37.6054C95.0925 37.2236 95.259 36.7834 95.2697 36.2821L93.0338 35.4848C93.0279 35.7628 92.936 36.0299 92.7366 36.2832L94.7919 37.6054ZM93.3789 36.1755L94.8164 37.6261L96.3621 37.042L94.9246 35.5914L93.3789 36.1755ZM94.4745 36.8884C94.4256 37.3119 94.2762 37.6783 94.0261 37.9912L96.0775 39.3182C96.4273 38.8806 96.6362 38.3665 96.704 37.7796L94.4745 36.8884ZM94.0261 37.9912C93.7694 38.3122 93.4414 38.5614 93.0431 38.743L94.7354 40.3418C95.2871 40.0903 95.7341 39.7477 96.0775 39.3182L94.0261 37.9912ZM93.0431 38.743C92.6646 38.9155 92.2197 39.0011 91.7018 39.0011L92.7018 40.7332C93.4838 40.7332 94.1639 40.6023 94.7354 40.3418L93.0431 38.743ZM103.556 39.0877L103.445 39.82L103.454 39.8235L103.556 39.0877ZM100.056 36.966L99.4084 37.3729L99.4199 37.3824L100.056 36.966ZM96.5813 30.9471L95.4639 30.5306L95.4636 30.5402L96.5813 30.9471ZM97.6313 28.8253L96.679 28.0895L96.6745 28.0931L97.6313 28.8253ZM103.994 28.6738L103.986 29.4456L103.998 29.4497L104.009 29.4537L103.994 28.6738ZM107.156 30.3409L108.247 30.8877L108.42 30.4119L107.748 29.8887L107.156 30.3409ZM106.606 31.8564L106.071 32.351L107.374 33.2947L107.697 32.4032L106.606 31.8564ZM105.056 30.9471L104.849 31.6366L104.849 31.6366L105.056 30.9471ZM103.356 30.2976L103.456 31.1036L103.456 31.1036L103.356 30.2976ZM100.019 30.579L100.971 31.3145L100.975 31.3112L100.019 30.579ZM99.3438 31.9647L98.2262 31.5552L99.3438 31.9647ZM101.669 35.9484L101.041 36.3721L101.051 36.3801L101.669 35.9484ZM107.581 37.6588L106.782 36.8403L106.772 36.8439L107.581 37.6588ZM108.494 37.0742L109.494 37.767L109.494 37.767L108.494 37.0742ZM109.069 36.1216L109.528 35.5747L108.272 34.7467L107.977 35.5774L109.069 36.1216ZM111.369 37.6371L112.473 38.139L112.604 37.6016L111.828 37.0903L111.369 37.6371ZM109.994 39.2393L109.108 38.4595L109.104 38.4621L109.994 39.2393ZM106.781 39.0011C105.737 39.0011 104.703 38.7805 103.659 38.3519L103.454 39.8235C104.942 40.4342 106.392 40.7332 107.781 40.7332L106.781 39.0011ZM103.667 38.3555C102.615 37.9182 101.628 37.3222 100.693 36.5495L99.4199 37.3824C100.651 38.3995 101.997 39.218 103.445 39.8199L103.667 38.3555ZM100.704 36.5591C99.8007 35.8012 99.0615 34.94 98.4937 33.9565L96.4937 33.9565C97.2093 35.1959 98.1784 36.3409 99.4084 37.3729L100.704 36.5591ZM98.4937 33.9565C97.926 32.9731 97.6707 32.1118 97.6989 31.354L95.4636 30.5402C95.4251 31.5721 95.7782 32.7172 96.4937 33.9565L98.4937 33.9565ZM97.6985 31.3635C97.7417 30.5908 98.0409 29.9949 98.588 29.5575L96.6745 28.0931C95.9216 28.695 95.5208 29.5136 95.464 30.5307L97.6985 31.3635ZM98.5834 29.5611C99.1333 29.1326 99.9125 28.9119 100.956 28.9119L99.9563 27.1799C98.5667 27.1799 97.4626 27.4788 96.6791 28.0895L98.5834 29.5611ZM100.956 28.9119C101.98 28.9119 102.987 29.0946 103.986 29.4456L104.002 27.9019C102.617 27.4157 101.265 27.1799 99.9563 27.1799L100.956 28.9119ZM104.009 29.4537C105.022 29.7946 105.86 30.2442 106.564 30.7931L107.748 29.8887C106.636 29.023 105.366 28.3612 103.978 27.8939L104.009 29.4537ZM106.065 29.794L105.515 31.3096L107.697 32.4032L108.247 30.8877L106.065 29.794ZM107.142 31.3618C106.569 30.9471 105.939 30.5801 105.263 30.2576L104.849 31.6366C105.323 31.8625 105.727 32.1017 106.071 32.351L107.142 31.3618ZM105.263 30.2576C104.592 29.9373 103.922 29.6807 103.257 29.4915L103.456 31.1036C103.907 31.232 104.371 31.4084 104.849 31.6366L105.263 30.2576ZM103.257 29.4915C102.58 29.2992 101.945 29.1934 101.369 29.1934L102.369 30.9254C102.659 30.9254 103.015 30.9783 103.456 31.1036L103.257 29.4915ZM101.369 29.1934C100.393 29.1934 99.6122 29.407 99.062 29.8468L100.975 31.3112C101.292 31.0582 101.744 30.9254 102.369 30.9254L101.369 29.1934ZM99.0662 29.8435C98.5317 30.261 98.2564 30.8392 98.2262 31.5552L100.461 32.3741C100.481 31.9065 100.656 31.561 100.971 31.3145L99.0662 29.8435ZM98.2262 31.5552C98.1954 32.2847 98.4444 33.0915 98.9438 33.9565L100.944 33.9565C100.593 33.3493 100.442 32.8282 100.461 32.3741L98.2262 31.5552ZM98.9438 33.9565C99.4469 34.8281 100.144 35.64 101.041 36.3721L102.296 35.5247C101.743 35.0731 101.291 34.5572 100.944 33.9565L98.9438 33.9565ZM101.051 36.3801C101.915 37.0762 102.863 37.6425 103.883 38.0662L104.105 36.6018C103.458 36.3327 102.856 35.9753 102.286 35.5167L101.051 36.3801ZM103.883 38.0662C104.931 38.5022 105.943 38.7197 106.894 38.7197L105.894 36.9876C105.311 36.9876 104.723 36.8587 104.105 36.6018L103.883 38.0662ZM106.894 38.7197C107.457 38.7197 107.958 38.6379 108.39 38.4736L106.772 36.8439C106.521 36.9394 106.23 36.9876 105.894 36.9876L106.894 38.7197ZM108.381 38.4772C108.827 38.3154 109.197 38.0758 109.494 37.767L107.494 36.3814C107.291 36.5922 107.052 36.7424 106.782 36.8404L108.381 38.4772ZM109.494 37.767C109.79 37.4597 110.01 37.0905 110.161 36.6657L107.977 35.5774C107.861 35.9032 107.698 36.1691 107.494 36.3814L109.494 37.767ZM108.609 36.6684L110.909 38.184L111.828 37.0903L109.528 35.5747L108.609 36.6684ZM110.264 37.1352C110.14 37.6437 109.775 38.0914 109.108 38.4595L110.879 40.019C111.729 39.55 112.281 38.9296 112.473 38.139L110.264 37.1352ZM109.104 38.4621C108.463 38.8239 107.691 39.0011 106.781 39.0011L107.781 40.7332C109.005 40.7332 110.041 40.4919 110.884 40.0165L109.104 38.4621ZM117.185 39.131L117.129 39.8852L117.14 39.8892L117.15 39.8931L117.185 39.131ZM113.548 37.0742L112.936 37.5106L112.947 37.5198L113.548 37.0742ZM110.035 31.6399L111.149 31.9561L111.149 31.9561L110.035 31.6399ZM110.31 29.7346L109.24 29.139L109.24 29.1395L110.31 29.7346ZM111.71 28.4789L112.551 29.2808L112.558 29.2774L111.71 28.4789ZM116.773 28.4573L116.814 29.2457L116.825 29.2491L116.835 29.2523L116.773 28.4573ZM119.335 29.6047L118.95 30.1983L118.958 30.2031L118.966 30.2079L119.335 29.6047ZM121.598 31.3584L120.827 31.653L120.838 31.6636L120.849 31.674L121.598 31.3584ZM123.285 33.5452L124.296 33.5648L124.294 33.5609L123.285 33.5452ZM123.81 34.4978L124.31 35.3638L125.288 35.3638L124.821 34.5175L123.81 34.4978ZM113.085 34.4978L112.257 34.7317L112.827 35.3638L113.585 35.3638L113.085 34.4978ZM111.485 32.7224L110.985 31.8564L109.666 31.8564L110.657 32.9563L111.485 32.7224ZM120.56 32.7224L121.641 33.2954L122.276 31.8564L120.06 31.8564L120.56 32.7224ZM120.398 33.0905L119.398 33.0905L120.72 35.3809L121.478 33.6635L120.398 33.0905ZM120.098 32.5709L121.098 32.5709L121.075 32.5316L121.048 32.4925L120.098 32.5709ZM118.81 31.2935L119.323 30.7825L119.323 30.7825L118.81 31.2935ZM117.098 30.4058L117.082 31.175L117.082 31.175L117.098 30.4058ZM113.323 30.5357L114.238 31.2976L114.245 31.2933L114.251 31.2889L113.323 30.5357ZM112.673 31.8348L113.791 32.2141L113.79 32.2063L112.673 31.8348ZM115.185 36.0133L114.558 36.4371L114.567 36.445L115.185 36.0133ZM117.585 37.3557L117.564 38.1228L117.564 38.1228L117.585 37.3557ZM121.923 37.5505L121.098 36.7416L121.091 36.7448L121.923 37.5505ZM123.16 36.5329L123.685 36.0305L122.595 35.2523L122.126 35.8802L123.16 36.5329ZM125.373 38.1134L126.433 38.7258L126.732 38.2077L125.897 37.611L125.373 38.1134ZM124.423 39.0228L123.521 38.2526L123.513 38.2574L124.423 39.0228ZM122.96 39.6506L123.698 40.4881L123.706 40.4862L123.713 40.4841L122.96 39.6506ZM120.71 39.0011C119.504 39.0011 118.345 38.7829 117.22 38.3689L117.15 39.8931C118.692 40.4606 120.216 40.7332 121.71 40.7332L120.71 39.0011ZM117.241 38.3769C116.106 37.944 115.082 37.3638 114.148 36.6286L112.947 37.5198C114.214 38.5167 115.614 39.3076 117.129 39.8852L117.241 38.3769ZM114.159 36.6378C113.261 35.92 112.52 35.0782 111.948 34.0864L109.948 34.0864C110.675 35.3463 111.667 36.4964 112.936 37.5106L114.159 36.6378ZM111.948 34.0864C111.485 33.2856 111.226 32.5791 111.149 31.9561L108.922 31.3237C109.027 32.173 109.377 33.0975 109.948 34.0864L111.948 34.0864ZM111.149 31.9561C111.069 31.3156 111.15 30.7771 111.38 30.3298L109.24 29.1395C108.92 29.7603 108.818 30.492 108.922 31.3237L111.149 31.9561ZM111.38 30.3302C111.617 29.8722 112.005 29.5234 112.551 29.2807L110.869 27.6771C110.116 28.0118 109.57 28.5002 109.24 29.139L111.38 30.3302ZM112.558 29.2774C113.113 29.0219 113.805 28.8903 114.648 28.8903L113.648 27.1582C112.557 27.1582 111.624 27.3297 110.862 27.6804L112.558 29.2774ZM114.648 28.8903C115.363 28.8903 116.082 29.0109 116.814 29.2457L116.731 27.6689C115.663 27.3262 114.632 27.1582 113.648 27.1582L114.648 28.8903ZM116.835 29.2523C117.579 29.481 118.28 29.7959 118.95 30.1983L119.721 29.0112C118.757 28.4321 117.75 27.982 116.71 27.6622L116.835 29.2523ZM118.966 30.2079C119.642 30.6058 120.261 31.0835 120.827 31.653L122.368 31.0639C121.585 30.2766 120.695 29.5852 119.705 29.0016L118.966 30.2079ZM120.849 31.674C121.412 32.2211 121.89 32.8359 122.276 33.5294L124.294 33.5609C123.797 32.6667 123.15 31.8237 122.347 31.0429L120.849 31.674ZM122.274 33.5255L122.799 34.4781L124.821 34.5175L124.296 33.5648L122.274 33.5255ZM123.31 33.6318L112.585 33.6318L113.585 35.3638L124.31 35.3638L123.31 33.6318ZM113.913 34.2639L112.313 32.4885L110.657 32.9563L112.257 34.7317L113.913 34.2639ZM111.985 33.5885L121.06 33.5885L120.06 31.8564L110.985 31.8564L111.985 33.5885ZM119.48 32.1494L119.317 32.5175L121.478 33.6635L121.641 33.2954L119.48 32.1494ZM121.398 33.0905L121.098 32.5709L119.098 32.5709L119.398 33.0905L121.398 33.0905ZM121.048 32.4925C120.62 31.8646 120.041 31.2883 119.323 30.7825L118.298 31.8045C118.646 32.0492 118.925 32.3245 119.147 32.6493L121.048 32.4925ZM119.323 30.7825C118.633 30.2974 117.892 29.9138 117.113 29.6366L117.082 31.175C117.52 31.3308 117.92 31.539 118.298 31.8045L119.323 30.7825ZM117.113 29.6366C116.318 29.3538 115.555 29.215 114.835 29.215L115.835 30.9471C116.249 30.9471 116.66 31.0248 117.082 31.175L117.113 29.6366ZM114.835 29.215C113.808 29.215 112.969 29.3881 112.394 29.7825L114.251 31.2889C114.56 31.0771 115.062 30.9471 115.835 30.9471L114.835 29.215ZM112.407 29.7739C111.813 30.1548 111.534 30.7291 111.555 31.4632L113.79 32.2063C113.778 31.7857 113.932 31.494 114.238 31.2976L112.407 29.7739ZM111.555 31.4555C111.565 32.1694 111.875 33.0085 112.41 33.9349L114.41 33.9349C113.978 33.1869 113.797 32.626 113.791 32.214L111.555 31.4555ZM112.41 33.9349C112.94 34.8517 113.649 35.6954 114.558 36.437L115.813 35.5896C115.271 35.1477 114.797 34.6057 114.41 33.9349L112.41 33.9349ZM114.567 36.445C115.466 37.1692 116.474 37.7311 117.564 38.1228L117.606 36.5885C116.929 36.3451 116.337 36.0122 115.803 35.5816L114.567 36.445ZM117.564 38.1228C118.655 38.515 119.733 38.698 120.785 38.698L119.785 36.966C119.004 36.966 118.282 36.8314 117.606 36.5885L117.564 38.1228ZM120.785 38.698C121.548 38.698 122.21 38.5875 122.754 38.3563L121.091 36.7448C120.752 36.8888 120.322 36.966 119.785 36.966L120.785 38.698ZM122.747 38.3594C123.323 38.1236 123.797 37.7175 124.194 37.1857L122.126 35.8802C121.79 36.3299 121.439 36.6022 121.098 36.7416L122.747 38.3594ZM122.636 37.0354L124.848 38.6159L125.897 37.611L123.685 36.0305L122.636 37.0354ZM124.312 37.5011C124.154 37.7748 123.896 38.0275 123.521 38.2526L125.325 39.7929C125.816 39.4984 126.191 39.1449 126.433 38.7258L124.312 37.5011ZM123.513 38.2574C123.145 38.487 122.71 38.6741 122.207 38.8171L123.713 40.4841C124.327 40.3096 124.867 40.0781 125.332 39.7881L123.513 38.2574ZM122.222 38.8131C121.74 38.9397 121.236 39.0011 120.71 39.0011L121.71 40.7332C122.418 40.7332 123.081 40.6502 123.698 40.4881L122.222 38.8131Z" fill="url(#paint1_linear_86_754)" fill-opacity="0.56"/>
</g>
<defs>
<filter id="filter0_f_86_754" x="78.836" y="15.1401" width="129.845" height="11.5" filterUnits="userSpaceOnUse" color-interpolation-filters="sRGB">
<feFlood flood-opacity="0" result="BackgroundImageFix"/>
<feBlend mode="normal" in="SourceGraphic" in2="BackgroundImageFix" result="shape"/>
<feGaussianBlur stdDeviation="0.25" result="effect1_foregroundBlur_86_754"/>
</filter>
<filter id="filter1_ddddd_86_754" x="0.849976" y="0.629395" width="153.11" height="70.2378" filterUnits="userSpaceOnUse" color-interpolation-filters="sRGB">
<feFlood flood-opacity="0" result="BackgroundImageFix"/>
<feColorMatrix in="SourceAlpha" type="matrix" values="0 0 0 0 0 0 0 0 0 0 0 0 0 0 0 0 0 0 127 0" result="hardAlpha"/>
<feOffset dy="0.137396"/>
<feGaussianBlur stdDeviation="0.463711"/>
<feColorMatrix type="matrix" values="0 0 0 0 0.14902 0 0 0 0 0.121569 0 0 0 0 0.129412 0 0 0 0.117807 0"/>
<feBlend mode="normal" in2="BackgroundImageFix" result="effect1_dropShadow_86_754"/>
<feColorMatrix in="SourceAlpha" type="matrix" values="0 0 0 0 0 0 0 0 0 0 0 0 0 0 0 0 0 0 127 0" result="hardAlpha"/>
<feOffset dy="0.347484"/>
<feGaussianBlur stdDeviation="1.17276"/>
<feColorMatrix type="matrix" values="0 0 0 0 0.14902 0 0 0 0 0.121569 0 0 0 0 0.129412 0 0 0 0.16861 0"/>
<feBlend mode="normal" in2="effect1_dropShadow_86_754" result="effect2_dropShadow_86_754"/>
<feColorMatrix in="SourceAlpha" type="matrix" values="0 0 0 0 0 0 0 0 0 0 0 0 0 0 0 0 0 0 127 0" result="hardAlpha"/>
<feOffset dy="0.708835"/>
<feGaussianBlur stdDeviation="2.39232"/>
<feColorMatrix type="matrix" values="0 0 0 0 0.14902 0 0 0 0 0.121569 0 0 0 0 0.129412 0 0 0 0.21139 0"/>
<feBlend mode="normal" in2="effect2_dropShadow_86_754" result="effect3_dropShadow_86_754"/>
<feColorMatrix in="SourceAlpha" type="matrix" values="0 0 0 0 0 0 0 0 0 0 0 0 0 0 0 0 0 0 127 0" result="hardAlpha"/>
<feOffset dy="1.46007"/>
<feGaussianBlur stdDeviation="4.92772"/>
<feColorMatrix type="matrix" values="0 0 0 0 0.14902 0 0 0 0 0.121569 0 0 0 0 0.129412 0 0 0 0.262193 0"/>
<feBlend mode="normal" in2="effect3_dropShadow_86_754" result="effect4_dropShadow_86_754"/>
<feColorMatrix in="SourceAlpha" type="matrix" values="0 0 0 0 0 0 0 0 0 0 0 0 0 0 0 0 0 0 127 0" result="hardAlpha"/>
<feOffset dy="4"/>
<feGaussianBlur stdDeviation="13.5"/>
<feColorMatrix type="matrix" values="0 0 0 0 0.14902 0 0 0 0 0.121569 0 0 0 0 0.129412 0 0 0 0.38 0"/>
<feBlend mode="normal" in2="effect4_dropShadow_86_754" result="effect5_dropShadow_86_754"/>
<feBlend mode="normal" in="SourceGraphic" in2="effect5_dropShadow_86_754" result="shape"/>
</filter>
<linearGradient id="paint0_linear_86_754" x1="143.545" y1="35.6667" x2="143.545" y2="15.3333" gradientUnits="userSpaceOnUse">
<stop offset="0.0121729" stop-color="#8B0930"/>
<stop offset="0.916311" stop-color="#FCF6F8"/>
</linearGradient>
<linearGradient id="paint1_linear_86_754" x1="24" y1="18" x2="128.047" y2="54.6498" gradientUnits="userSpaceOnUse">
<stop offset="0.593716" stop-color="#1E0009" stop-opacity="0.72"/>
<stop offset="0.946109" stop-color="#A20D35"/>
</linearGradient>
</defs>
</svg>
